<?xml version="1.0" standalone="no"?>
<!DOCTYPE svg PUBLIC "-//W3C//DTD SVG 1.1//EN" "http://www.w3.org/Graphics/SVG/1.1/DTD/svg11.dtd" >
<svg>
<metadata>
Created by FontForge 20090914 at Tue Oct 11 16:05:38 2011
 By www-data
unnamed
</metadata>
<defs>
<font id="WGSkratched" horiz-adv-x="445" >
  <font-face 
    font-family="WG Skratched"
    font-weight="500"
    font-stretch="normal"
    units-per-em="1000"
    panose-1="2 0 6 3 0 0 0 0 0 0"
    ascent="800"
    descent="-200"
    x-height="427"
    cap-height="710"
    bbox="-67 -230 908 891"
    underline-thickness="50"
    underline-position="-100"
    unicode-range="U+0020-U+F8FF"
  />
<missing-glyph horiz-adv-x="364" 
d="M66 33h199v600h-199v-600zM33 0v666h265v-666h-265z" />
    <glyph glyph-name=".notdef" horiz-adv-x="364" 
d="M66 33h199v600h-199v-600zM33 0v666h265v-666h-265z" />
    <glyph glyph-name="NULL" horiz-adv-x="0" 
 />
    <glyph glyph-name="nonmarkingreturn" horiz-adv-x="333" 
 />
    <glyph glyph-name="space" unicode=" " horiz-adv-x="300" 
 />
    <glyph glyph-name="exclam" unicode="!" horiz-adv-x="209" 
d="M134 631l32 32q8 -43 12.5 -87.5t6 -97.5t2 -84t0 -98t-0.5 -89l-32 -32q0 22 0.5 88.5t0 97.5t-2 84.5t-6.5 97.5t-12 88zM151 2q7 -6 7 -16t-6.5 -16.5t-16.5 -6.5t-16.5 6.5t-6.5 16.5t6.5 16.5t16.5 6.5t16 -7z" />
    <glyph glyph-name="quotedbl" unicode="&#x22;" horiz-adv-x="279" 
d="M49 642l32 32q-17 -47 -7.5 -106.5t38.5 -102.5l-32 -32q-29 42 -39 101.5t8 107.5zM224 639l32 32q-8 -112 -8 -190l-32 -32q0 78 8 190z" />
    <glyph glyph-name="numbersign" unicode="#" horiz-adv-x="585" 
d="M299 254q33 101 59 195q-85 8 -162 9l-32 -88l-39 -109q37 1 174 -7zM-12 216l32 32q38 9 84 12l67 187l4 11q-90 -1 -132 -13l32 32q37 11 110 13q41 127 66 176l32 32q-11 -23 -22.5 -51.5t-18.5 -48.5l-18 -56l-17 -52q74 1 161 -6l39 149l32 32q-21 -87 -48 -183
q112 -11 171 -28l-32 -32q-53 14 -149 25q-27 -94 -60 -194q13 0 24 -1h49q32 0 58 -1t49 -3l-32 -32q-23 2 -49 2.5t-58 0.5t-49 1h-3l-69 -202l-32 -32l80 235q-19 0 -54 2.5t-64.5 4t-55.5 1.5q-25 -77 -39 -142l-32 -32q16 76 49 173q-59 -1 -105 -12z" />
    <glyph glyph-name="dollar" unicode="$" horiz-adv-x="502" 
d="M249 376q3 111 1 237q-53 11 -94 -13q-22 -43 -1 -99q29 -73 94 -125zM256 2q21 3 39 8q64 19 129 74q16 22 20 32q9 26 -2 53t-43 53.5t-55.5 42t-65.5 39.5q-6 -159 -22 -302zM248 747l32 32q2 -70 3 -134q44 -9 89 -39.5t78 -68.5l-32 -32q-62 70 -135 98
q1 -132 -3 -248q9 -5 29 -18q42 -24 65.5 -39.5t56 -42t43.5 -53.5t2 -54q-2 -7 -6 -14l-11 -14q-6 -8 -9 -13l-32 -32q-81 -75 -155 -97q-5 -2 -11 -3l-2 -18l-32 -32q3 22 5 45q-41 -5 -83.5 2.5t-78.5 26t-56 53.5t-14 81l32 32q-5 -41 11.5 -74t47 -52.5t68 -29
t76.5 -9.5q16 151 22 322q-20 12 -29 20q-67 52 -96 127q-26 66 11 115l32 32q36 32 84 33z" />
    <glyph glyph-name="percent" unicode="%" horiz-adv-x="803" 
d="M244 392q25 35 34.5 68.5t5 57.5t-21 39.5t-41 18.5t-57.5 -9.5t-68 -40.5q-10 -53 4.5 -97t50.5 -58.5t93 21.5zM725 74q22 36 23 72t-13.5 62.5t-43.5 42t-65 12.5l-7 -7l-30 -3q-24 -37 -32 -75t2 -66t31 -45.5t57 -16.5t78 24zM581 268q36 22 70.5 26.5t60 -5.5
t43.5 -31.5t24 -49t-3 -60.5t-34 -64l-32 -32q-35 -23 -67 -30.5t-54.5 -1.5t-39.5 21t-23 39.5t-3.5 52t18 59t41.5 60.5l1 1q-11 -4 -21 -10l-9 -20l-32 -32q3 6 5.5 12.5t3 7.5t2.5 4.5t2.5 4t5 6t9.5 10.5zM166 586q-23 13 -24 13t-22 -9q-17 -28 -24 -63l24 24
q38 33 74 47t61.5 10.5t42 -21t19.5 -44.5t-11 -64t-45 -75l-32 -32q-85 -67 -135 -18q-40 38 -34 116q6 70 49 116l32 32q9 4 17 7t9.5 4.5t5.5 1.5t4.5 -0.5t7.5 -4.5t13 -8zM216 -47q42 70 109 205l94 186q21 39 94 152.5t103 180.5l32 32q-29 -67 -102 -180t-95 -153
q-27 -49 -93.5 -184.5t-109.5 -206.5z" />
    <glyph glyph-name="ampersand" unicode="&#x26;" horiz-adv-x="560" 
d="M312 443q38 45 48 88q17 76 -24.5 112.5t-108.5 0.5q-32 -44 -38.5 -90t7 -85t43.5 -82q36 26 73 56zM419 83q13 15 23 29q-21 23 -110 108t-125 135q-51 -37 -101 -67q-8 -12 -9 -28q-2 -51 38.5 -107.5t102 -89.5t112.5 -22q30 7 69 42zM407 69q-3 -3 -13 -12l-14 -13
l-13.5 -10.5t-16 -11t-15.5 -7.5t-17 -6q-52 -12 -113 21.5t-101.5 90t-38.5 107.5q0 10 4.5 19t7 12.5t13.5 14.5l12 12l11 11l15 15l6 6q34 20 68 43q-31 46 -43 87.5t0.5 91t56.5 98.5l32 32q49 27 85 22t53.5 -41t5.5 -88q-7 -30 -23 -54.5t-44 -54.5l-32 -32l-50 -40
q35 -47 121 -129.5t104 -101.5q33 62 26 129l32 32q10 -85 -52 -168q45 -49 63 -88l-32 -32q-18 37 -60 84l-6 -7z" />
    <glyph glyph-name="quotesingle" unicode="'" horiz-adv-x="153" 
d="M80 661l32 32q2 -22 4.5 -71.5t5.5 -87.5t8 -72l-32 -32q-6 34 -9 71.5t-5.5 87t-3.5 72.5z" />
    <glyph glyph-name="parenleft" unicode="(" horiz-adv-x="299" 
d="M210 639l32 32q-8 -13 -16 -29l-13 -25q-5 -10 -12.5 -32t-8.5 -27l-10 -32q-9 -28 -10 -30q-26 -83 -35 -169.5t0 -173t44.5 -168t94.5 -144.5l-32 -32q-60 62 -95 143.5t-44 168.5t0 173t35 170q2 6 8 25.5t8 27t8 24t10 26.5t10 23.5t12 25t14 23.5z" />
    <glyph glyph-name="parenright" unicode=")" horiz-adv-x="242" 
d="M-4 683l32 32q35 -2 65 -27t50.5 -63.5t32.5 -73.5q13 -34 22 -72q20 -79 21 -189q2 -115 -13 -184q-16 -71 -51.5 -129.5t-112.5 -144.5l-32 -32q77 86 112.5 144t50.5 129.5t14 184.5q-2 108 -21 189q-9 36 -22 71t-33.5 74t-50.5 63.5t-64 27.5z" />
    <glyph glyph-name="asterisk" unicode="*" horiz-adv-x="328" 
d="M27 578l32 32q52 -16 86 -36q15 46 15 85l32 32q0 -54 -31 -128l6 -4l3 3q9 3 58.5 21.5t76.5 23.5l-32 -32q-30 -6 -90 -29q27 -24 76 -87l-32 -32q-54 68 -84 93q-19 -41 -27 -60l-32 -32q7 18 22 52l23 51q-39 27 -102 47z" />
    <glyph glyph-name="plus" unicode="+" horiz-adv-x="532" 
d="M44 245l32 32q74 10 185 1q-1 8 -4 42t-3.5 49t0.5 39.5t5 43.5q1 3 3 6.5t5.5 7.5t5.5 6l32 32q-1 -2 -5 -6l-6 -7q-2 -3 -3 -7q-6 -43 -5.5 -67.5t5 -72t4.5 -68.5v-1q45 -4 127.5 -14.5t86.5 -11.5l-32 -32q-18 2 -81.5 10t-100.5 12q0 -17 -1 -55t-1.5 -60.5t1 -54
t4.5 -57.5l-32 -32q-5 38 -5.5 82t1 97.5t1.5 83.5q-136 13 -219 2z" />
    <glyph glyph-name="comma" unicode="," horiz-adv-x="202" 
d="M114 61q-1 0 -3 -1q1 0 3 1zM101 36q-5 -2 -10.5 -4.5t-7 -3t-3.5 -1t-2 1.5v4q0 2 0.5 7.5t0.5 11.5l32 32q73 29 68 -32q-5 -56 -57 -142q-6 -11 -11 -17l-32 -32q10 14 25.5 43t29 63.5t13 61.5t-21.5 31z" />
    <glyph glyph-name="hyphen" unicode="-" horiz-adv-x="274" 
d="M30 245l32 32q22 4 49.5 6t42 2.5t53 0t44.5 -0.5l-32 -32h-45h-53q-15 0 -42.5 -2t-48.5 -6z" />
    <glyph glyph-name="period" unicode="." horiz-adv-x="156" 
d="M126 62q7 -6 7 -16t-6.5 -16.5t-16.5 -6.5t-16.5 6.5t-6.5 16.5t6.5 16.5t16.5 6.5t16 -7z" />
    <glyph glyph-name="slash" unicode="/" horiz-adv-x="287" 
d="M-1 -8q0 32 13.5 69.5t35 81.5t29.5 68l155 480l32 32l-155 -480q-8 -23 -29 -67.5t-35 -82t-14 -69.5z" />
    <glyph glyph-name="zero" unicode="0" horiz-adv-x="410" 
d="M324 594q-61 89 -176 15q-43 -60 -58.5 -147t-9.5 -166t25 -159q8 -33 23.5 -63.5t37.5 -55t53 -35t65 -2.5q38 92 58 228t9 224q-7 49 -34.5 91.5t-69 61.5t-92.5 -5l32 32q51 24 93 5.5t69.5 -61t33.5 -92.5q13 -95 -11.5 -242.5t-66.5 -234.5l-32 -32
q-41 -15 -74 -8.5t-58.5 32t-42 57.5t-25.5 68q-15 62 -22 125.5t-4 131t25 130t62 107.5l32 32q125 91 190 -5z" />
    <glyph glyph-name="one" unicode="1" horiz-adv-x="315" 
d="M93 500l32 32q31 -5 49 -1t37 19q33 45 48 81l32 32q0 -28 1 -79t1 -93t-2 -79q-2 -46 -13 -158.5t-11 -174.5l-32 -32q0 61 11 173.5t13 159.5q1 36 0 224l-23 -31l-32 -32q-33 -32 -53 -40.5t-58 -0.5z" />
    <glyph glyph-name="two" unicode="2" horiz-adv-x="462" 
d="M66 416q-7 31 2 52t36 52l32 32q54 52 107 75.5t92.5 18.5t67 -30t35.5 -63.5t-8 -90.5t-58 -103l-32 -32q-40 -39 -123 -92t-110 -74q-57 -65 -51 -120q3 -26 27.5 -40.5t63 -16t80 2t87 13.5t74.5 17t51 14l-32 -32q-23 -7 -51.5 -14.5t-74.5 -17t-87 -13t-80 -2.5
t-63 15.5t-27 41.5q-3 21 2 40.5t18.5 39.5t22.5 31t29 32l32 32q34 28 109.5 76t110.5 77q37 49 51 97.5t6 85.5t-33 61.5t-61.5 31t-85.5 -11.5t-99 -61q-20 -24 -27 -44t-1 -48z" />
    <glyph glyph-name="three" unicode="3" horiz-adv-x="439" 
d="M343 84q32 42 38.5 88t-10 83t-57.5 61.5t-98 24.5l32 32q53 6 100 39q31 50 31 113q0 48 -19.5 73t-48.5 27.5t-67 -8.5t-71 -29t-63 -40l-9 -21l-32 -32l13 32l32 32q21 18 49 36t62 35t66.5 23.5t59.5 3t43.5 -28.5t16.5 -71q0 -69 -41 -128l-32 -32q-21 -18 -40 -29
q61 -14 93 -58t24.5 -101t-53.5 -108l-32 -32q-34 -30 -46 -35q-29 -13 -69 -13.5t-77.5 11t-65.5 37t-32 59.5l32 32q5 -33 33 -58.5t65 -37t77.5 -11.5t68.5 13q12 6 27 18z" />
    <glyph glyph-name="four" unicode="4" horiz-adv-x="523" 
d="M59 215l44.5 -5t105 -7.5t121.5 1.5q3 86 18 204q4 35 9 102t8 96q0 2 2.5 8.5t3 9.5t-2.5 6q-181 -271 -309 -415zM4 183q65 88 192 247l175 222l32 32l-44 -57q-3 -3 -7 -9l-3 -4l-1 -1l17 17q-3 -1 -6 -3l-10 -13l-1 -1l17 17l11 11q3 3 7.5 9t8.5 9.5t8 2.5
q4 -2 3.5 -4.5t-3.5 -9.5l-3 -10q-3 -29 -7.5 -95.5t-9.5 -102.5q-17 -137 -18 -234l138 12l-32 -32l-106 -9q1 -62 8 -115l-32 -32q-9 64 -8 144q-200 -17 -320 -8l17 17q128 143 311 417l-95 -120l-115 -143l-92 -122z" />
    <glyph glyph-name="five" unicode="5" horiz-adv-x="454" 
d="M399 595q-37 17 -120.5 18t-136.5 -13q-8 -41 -19.5 -138.5t-23.5 -148.5l6 6l15 15l4 4l13 13q46 33 92.5 41.5t83 -3t64.5 -38t41 -61t7.5 -75t-31.5 -77.5l-32 -32q-25 -21 -62.5 -38t-79.5 -25t-80 -4.5t-66.5 27.5t-35.5 68l32 32q9 -50 44.5 -74t82 -22.5t93 15.5
t83.5 38q20 35 21.5 73.5t-12.5 70.5t-42 56t-63 34.5t-79 2.5t-87 -37l-14 -17l-32 -32q13 54 26 161t24 157l32 32q46 20 142.5 21.5t141.5 -18.5z" />
    <glyph glyph-name="six" unicode="6" horiz-adv-x="471" 
d="M416 506q-11 33 -40.5 61t-66.5 43t-78 18.5t-74 -12.5q-8 -4 -28 -19q-53 -92 -59 -215t36 -219q23 -50 59.5 -86t84 -49t96.5 16q20 32 29.5 72t8.5 79t-13 74.5t-35.5 59t-59 33.5t-83.5 -3q-14 -4 -29 -12t-22.5 -13t-26.5 -20t-22 -17l32 32q3 2 22 17t26.5 20
t23 13.5t28.5 11.5q51 14 87.5 2.5t60.5 -37.5t34 -64.5t9.5 -79.5t-14 -82.5t-36.5 -72.5l-32 -32q-53 -41 -104.5 -31.5t-91.5 46.5t-64 91q-45 98 -36.5 226.5t66.5 219.5l32 32q44 35 53 39q34 16 75 12.5t78 -18.5t66.5 -43t39.5 -61z" />
    <glyph glyph-name="seven" unicode="7" horiz-adv-x="528" 
d="M38 591l32 32q53 10 158 9t158 8l44 10l52 12q22 5 23 4q3 -2 -5 -17t-22 -36l-26 -41l-26 -38q-12 -18 -15 -22q-11 -18 -37 -56l-72 -112q-25 -42 -59.5 -110t-46.5 -127.5t-4 -113.5l-32 -32q-9 53 3 112.5t47 127.5t60 110t72 112l37 57l15 22l26 38l26 40
q14 21 21.5 36t5.5 18q-1 1 -23.5 -4t-52.5 -12.5t-43 -9.5q-53 -10 -158.5 -9t-157.5 -8z" />
    <glyph glyph-name="eight" unicode="8" horiz-adv-x="471" 
d="M137 598q-20 -33 -18 -78q2 -27 13.5 -47t28.5 -31.5t42.5 -20.5t48.5 -13l52 -12q31 -6 51 -12q20 88 8 141q-11 48 -51 73.5t-88 24t-87 -24.5zM112 313q89 59 158 51q-5 2 -25.5 6t-26.5 6l-24 6q-18 4 -24.5 7t-21 9t-20.5 12l-16 14q-9 8 -13 17t-8 21t-4 26
q-2 29 4.5 50t24.5 46l32 32q38 32 90.5 38.5t98.5 -19t58 -78.5t-8 -142l-32 -32q53 -16 76 -46q6 -7 9.5 -16t5 -23t2 -20.5t0.5 -23.5v-19q2 -87 -54 -159l-32 -32q-78 -60 -182 -37q-88 19 -132 83q-53 78 9 163q10 15 23 28zM91 288q-30 -41 -33 -82t16 -73t53.5 -56.5
t76 -35.5t88 -6t84.5 29q41 62 40 139v19q0 17 -0.5 23.5t-2.5 20t-5.5 23t-8.5 16.5q-26 33 -92 51q19 -8 37 -21l-32 -32q-91 66 -221 -15z" />
    <glyph glyph-name="nine" unicode="9" horiz-adv-x="454" 
d="M371 391q-4 53 0 91q-42 117 -167 124q-56 3 -95 -25q-24 -37 -29.5 -78.5t6 -78t36 -67.5t57.5 -48.5t75 -17.5t84 22q24 34 33 78zM340 89q15 24 24.5 53t13.5 48t3 56t-2 49.5t-5 55.5q-11 -17 -27 -33l-32 -32q-44 -26 -88.5 -27t-79 17t-60.5 51t-36 72t-2 83t38 81
l32 32q28 26 54 35q26 10 63 8q122 -6 165 -115l4 4q2 -12 2 -23q16 -48 24 -141l-21 -21q7 -73 -1.5 -128t-46.5 -107l-32 -32q-28 -26 -67 -41t-77 -15t-70 22t-43 65l32 32q14 -51 56 -71.5t90 -13t89 35.5z" />
    <glyph glyph-name="colon" unicode=":" horiz-adv-x="203" 
d="M169 435q7 -6 7 -16t-6.5 -16.5t-16.5 -6.5t-16.5 6.5t-6.5 16.5t6.5 16.5t16.5 6.5t16 -7zM173 52q7 -6 7 -16t-6.5 -16.5t-16.5 -6.5t-16.5 6.5t-6.5 16.5t6.5 16.5t16.5 6.5t16 -7z" />
    <glyph glyph-name="semicolon" unicode=";" horiz-adv-x="206" 
d="M102 59l32 32q31 -4 42.5 -30.5t5.5 -60.5t-19.5 -66t-28.5 -50l-32 -32q15 17 28 49t19.5 66t-5 61t-42.5 31zM126 418l-4 4l-23 -23l21 30q-1 3 -1 6q0 10 6.5 16.5t16.5 6.5h4l12 12l-9 -13q5 -1 9 -5q7 -7 7 -17t-6.5 -16.5t-16.5 -6.5t-16 6z" />
    <glyph glyph-name="less" unicode="&#x3c;" horiz-adv-x="574" 
d="M519 452q-23 -2 -49.5 -9.5t-45.5 -14.5l-48 -21q-30 -13 -44 -18l-91 -35l-117 -46q-46 -19 -89 -40q31 -35 92 -64t158 -60t107 -35q17 -6 58.5 -26t65.5 -27l-32 -32q-24 7 -66 27t-58 26q-22 8 -88 29t-111.5 37.5t-96 45t-70.5 58.5l32 32q37 20 84 41t80 34l92 36
l82 31q15 6 45 19t48.5 20t45 14.5t48.5 9.5z" />
    <glyph glyph-name="equal" unicode="=" horiz-adv-x="557" 
d="M26 342l32 32q28 0 78.5 -2.5t68.5 -3.5q62 -1 110.5 0t109 -0.5t109.5 -8.5l-32 -32q-49 6 -110 7.5t-109.5 0.5t-109.5 1q-19 0 -69.5 3t-77.5 3zM23 120l32 32q33 2 98 2.5t98 2.5q22 2 65.5 5.5t77.5 5.5t65 2l-32 -32q-31 0 -65.5 -2t-77.5 -6t-65 -5
q-33 -2 -98.5 -2.5t-97.5 -2.5z" />
    <glyph glyph-name="greater" unicode="&#x3e;" horiz-adv-x="498" 
d="M426 195q-35 -17 -101.5 -42t-81.5 -31q-45 -19 -124.5 -62t-113.5 -58l32 32q34 16 113.5 59t124.5 61q21 9 76.5 30t85.5 34q6 -4 6 -5v-1q0 -3 -3 -6t-7.5 -6t-6.5 -5zM28 534q43 -47 146 -113t196 -117q1 0 14 -6l26 -14l30 -16l25 -15q10 -6 10 -8q1 -3 -2 -6
t-8 -6.5t-7 -5.5l-21 -9l-23 14q-17 9 -32 16l-29 16q-14 7 -15 8q-93 50 -196.5 116.5t-145.5 113.5z" />
    <glyph glyph-name="question" unicode="?" horiz-adv-x="469" 
d="M131 536l-9 -24l-32 -32l12 33l32 32q167 138 269 82q29 -16 38.5 -48t2.5 -69q-5 -28 -21 -56t-34 -47t-38.5 -45t-30.5 -49q-12 -28 -22 -106l-32 -32q9 77 22 106q10 23 30 49t38 45t34.5 46.5t21.5 56.5q6 36 -3.5 68.5t-37.5 48.5q-93 51 -240 -59zM298 37
q7 -6 7 -16t-6.5 -16.5t-16.5 -6.5t-16.5 6.5t-6.5 16.5t6.5 16.5t16.5 6.5t16 -7z" />
    <glyph glyph-name="at" unicode="@" horiz-adv-x="842" 
d="M465 191q29 39 48 76.5t39.5 92t32.5 81.5q-31 41 -74.5 55.5t-87.5 -7.5q-23 -41 -40 -95.5t-16.5 -112t31.5 -82.5q31 -24 67 -8zM276 602q80 61 172 90q93 28 177 1q73 -23 122 -79q49 -57 65 -124t-1.5 -140t-69.5 -127l-32 -32q-15 -12 -26 -18t-24.5 -11t-27.5 -4
t-30 8q-14 5 -22.5 16t-11.5 28t-3.5 32.5t3 40t6 39.5t8.5 42.5t8 38.5q-19 -49 -28.5 -71t-32.5 -61t-53 -75l-32 -32q-23 -12 -39 -12.5t-38 15.5q-37 29 -33 91.5t24 122t44 93.5l32 32q28 25 62 28.5t64 -11.5t54 -42l15 15q1 -13 -2 -33l2 -4l-3 -3q-3 -17 -11 -56
t-12 -65t-5.5 -57t7.5 -51t29 -29q32 -10 51.5 -5.5t44.5 21.5q42 55 53.5 124.5t-6.5 132.5t-66 115.5t-117 74.5q-81 26 -171 -0.5t-169 -83.5q-61 -71 -80 -140q-11 -48 -12.5 -97.5t13 -99t38.5 -91t63 -74t87 -48.5q34 -11 71 -12.5t76 5.5t71 16l74 22q43 13 69 19
l-32 -32q-27 -7 -69.5 -20t-74.5 -21.5t-70.5 -16t-75.5 -5.5t-71 13q-49 16 -88 48.5t-63 74t-38.5 90.5t-13 98.5t13.5 98.5q21 78 103 165z" />
    <glyph glyph-name="A" unicode="A" horiz-adv-x="637" 
d="M433 258l-34 93q-26 72 -41 109.5t-43 90t-57 85.5q-3 -20 -6 -61q-2 -40 -5 -60q-20 -126 -69 -248q114 15 189 1q40 -7 66 -10zM77 225l32 32q27 5 48 8q41 109 58 218q0 4 5.5 73t19.5 99l32 32q47 -44 83 -115t75 -181t51 -138q21 -2 41 -2l-28 -28l20 -39
q11 -20 26 -45t22 -35l28 -43q21 -33 24 -38l-32 -32q-5 7 -23.5 35t-24.5 38l-21 34q-15 24 -23 38l-19 36q-11 21 -19 41l-3 7q-45 3 -114 16q-69 12 -170 1q-52 -118 -120 -197l-32 -32q76 89 132 227q-30 -4 -68 -10z" />
    <glyph glyph-name="B" unicode="B" horiz-adv-x="566" 
d="M362 379q57 19 105 56q30 40 23 98q-6 47 -39 78.5t-80 42.5t-100 10t-102 -13.5t-83 -33.5q-5 -121 -4 -214q45 14 124.5 7t155.5 -31zM273 362q-74 17 -140 18q69 -23 140 -18zM55 631l32 32q-1 -22 -1 -41l19 19q31 23 80.5 38t105 17.5t105 -8t85 -42t41.5 -81.5
q5 -37 -3.5 -63t-34.5 -54l-32 -32q-31 -27 -66 -46q50 -18 85.5 -42t56.5 -54t14 -67t-45 -76l-32 -32q-52 -40 -140.5 -70.5t-177.5 -35.5t-148 34l32 32q57 -37 142 -33.5t170 30.5t141 66q23 30 26 59t-10 53t-38.5 45.5t-58.5 37.5t-74 29q-122 -40 -247 8
q3 -138 16 -253l-32 -32q-16 133 -17 299l-3 2l3 3q0 106 6 258z" />
    <glyph glyph-name="C" unicode="C" horiz-adv-x="615" 
d="M560 474q-2 54 -36.5 91.5t-85 51t-104.5 13.5t-100 -14q-59 -18 -111 -59q-36 -50 -51.5 -111.5t-11 -121t28.5 -116t62.5 -99.5t95 -69.5t122.5 -27.5q68 -1 118 33q28 42 39.5 90t16.5 114l32 32q-5 -72 -19 -124.5t-50 -97.5l-32 -32q-32 -26 -64 -37
q-31 -11 -73 -10q-69 1 -125 28q-58 28 -96.5 72.5t-62 103t-26.5 119.5t15.5 123.5t59.5 112.5l32 32q62 56 132 77q46 14 100 14q55 1 105.5 -13t85 -51t35.5 -92z" />
    <glyph glyph-name="D" unicode="D" horiz-adv-x="636" 
d="M507 115q40 55 59.5 118.5t12 132t-44.5 125.5q-36 53 -92 94t-120.5 55.5t-121.5 -23.5q-59 -87 -68 -215q18 -76 24 -111q2 -9 17 -94t24 -129q90 -35 157.5 -24.5t152.5 71.5zM71 666l32 32q-16 -89 13 -227q21 74 63 129l32 32q40 38 92.5 43t101 -17t91.5 -57.5
t70 -77.5q40 -60 46 -133.5t-18 -140.5t-71 -122l-32 -32q-86 -65 -151 -80.5t-148 11.5l-21 -21q-8 16 -15 34q-16 6 -32 14l19 19q-54 151 -44 297q-9 38 -13.5 60.5t-11 58t-8.5 61t-1 57.5t6 60z" />
    <glyph glyph-name="E" unicode="E" horiz-adv-x="673" 
d="M535 634q-52 7 -150 6.5t-150 4.5q-17 1 -34.5 5t-40 10.5t-33.5 8.5q-6 -30 -7.5 -64.5t-0.5 -78.5t0 -66q-1 -33 -3 -78h457l-32 -32h-428q-7 -114 -8 -163q0 -3 -1 -22v-37q-1 -17 -1 -37.5t1.5 -34.5t4.5 -18q11 -12 34.5 -15.5t58 -1t40.5 1.5q253 -11 408 -11
l-32 -32q-155 0 -408 11q-6 0 -40.5 -2t-58.5 1t-34 16q-3 3 -5 17.5t-2 34.5t0.5 38t1.5 36.5t1 22.5q0 36 10 195h-18l19 19q2 32 3 59q0 19 -1 76.5t2.5 95.5t16.5 74l32 32q18 -3 62 -14.5t68 -14.5q47 -5 150.5 -4.5t149.5 -6.5z" />
    <glyph glyph-name="F" unicode="F" horiz-adv-x="570" 
d="M515 655q-27 1 -76.5 -4.5t-67.5 -5.5q-114 -4 -240 -4q-5 -23 -5.5 -58.5t1 -82t1.5 -57.5v-85q161 18 392 12l-32 -32q-211 5 -360 -9q-3 -180 -22 -305l-32 -32q20 132 21 333l-13 -1l14 14v73q0 9 -2 60t-1 87.5t8 57.5q1 4 4.5 8.5t8.5 9t7 7.5l32 32q132 0 250 4
q18 1 67.5 6t76.5 4z" />
    <glyph glyph-name="G" unicode="G" horiz-adv-x="674" 
d="M411 330q33 -2 99 -1q-34 20 -99 1zM571 489q0 45 -27 78.5t-69.5 49.5t-91.5 22t-95.5 -1t-78.5 -22q-18 -9 -40 -28q-20 -26 -33.5 -62t-18 -61t-11.5 -71l-3 -15q-7 -46 -9.5 -84t-0.5 -80.5t14.5 -75t33.5 -61t58 -47t87 -25.5q51 -7 89 3.5t82 39.5q48 60 72 132
t7 116q-19 0 -61 -1t-74 0.5t-60 6.5l32 32q44 21 78.5 30t57.5 6.5t38 -13.5t22 -29q24 0 45 -2l25 25q-1 -13 -3 -28q8 -1 15 -3l-17 -17q-4 -53 -4 -228l-32 -32q0 187 6 247l-29 4q2 -53 -29 -121t-79 -118l-32 -32q-49 -34 -88 -46t-93 -4q-51 7 -87 26
q-37 18 -58.5 46.5t-33.5 61t-14.5 74.5t0 80t10.5 85q0 5 2 14q8 50 13.5 77t21.5 66t40 66l32 32q41 37 61 46q33 16 79.5 22.5t95.5 1t91 -21.5t69 -49.5t27 -79.5z" />
    <glyph glyph-name="H" unicode="H" horiz-adv-x="623" 
d="M546 661l32 32q5 -17 7.5 -37.5t2.5 -33.5t-0.5 -40t-0.5 -36q0 -68 -6 -160q10 1 19 1l-20 -20q-18 -241 -19 -282l-32 -32q1 45 4 94t8 112t7 94q-58 -3 -208.5 -0.5t-208.5 -6.5q8 -125 11 -247l-32 -32q-4 135 -14 275l-5 -1l5 5q-10 150 -27 307l32 32
q17 -159 28 -311q61 9 139.5 11t141 -0.5t140.5 -0.5q5 72 5 130q0 8 0.5 35t0 40t-2.5 34t-7 38z" />
    <glyph glyph-name="I" unicode="I" horiz-adv-x="403" 
d="M-53 0l32 32q80 6 129 5q-5 82 -6 110q-1 31 -2 88t-2.5 104t-3.5 89q-1 13 -9 99t-7 131q-83 2 -119 -5l32 32q32 7 101 6l19 19v-20q83 -2 161.5 -14t107.5 -31l-32 -32q-26 16 -93 27.5t-144 15.5q1 -36 7.5 -103.5t7.5 -92.5q3 -41 4 -88t2 -104t2 -89q1 -28 5 -81.5
t4 -61.5q78 -5 129 -26l-32 -32q-40 16 -95 23v-33l-32 -32q0 29 -2 67q-62 4 -164 -3z" />
    <glyph glyph-name="J" unicode="J" horiz-adv-x="407" 
d="M334 653l32 32q4 -42 5.5 -90t2.5 -106.5t2 -90.5l6 -74q4 -60 2.5 -98.5t-11.5 -73.5q-11 -41 -54 -89l-32 -32q-86 -69 -146 -45q-55 21 -78 82.5t-6 117.5l32 32q-16 -56 7 -117t77 -83q54 -21 132 34q26 34 36 68q10 35 11 73t-3.5 98.5t-4.5 74.5q-1 32 -2 90.5
t-2.5 106t-5.5 90.5z" />
    <glyph glyph-name="K" unicode="K" horiz-adv-x="629" 
d="M436 588l-11 -12l6 5zM166 303l-10 -10l1 -4l17 14l30 33l-22 -22zM499 625l-5 -3l-89 -79l-14 -16l-26 -26l20 24l32 32l32 29l-64 -54l-109 -120l11 11h1h1l-16 -15l-16 -18h-1l-11 -12l7 6l-4 -4l-12 -12l-50 -55l-29 -29l1 -7l79 89l23 23q-1 1 -2 1q24 24 32 33
q1 -1 2 -1l26 28l32 32zM166 311l-10 -10v-7l3 5zM496 647l12 12l-16 -15zM390 541l-67 -62l-30 -30l-10 -9l-14 -15l37 34l-32 -32l-26 -24l-15 -15l-13 -14q-6 -7 -6.5 -8t-4.5 -6t-4 -5.5t-5 -8.5l-9 -16l17 12l15 15l147 162l-46 -42l32 32l31 28zM435 588l11 11l8 8
l-88 -73l21 15l-32 -32l-30 -22l-1 -1l-23 -22l19 19q-51 -39 -169 -140q1 -10 4 -47l26 31l-18 -18q25 44 97 114q-41 -42 -62 -77l25 26l24 24l22 24l32 32l16 14l25 25l68 63zM93 642l32 32q5 -56 13 -162t12 -153l1 -4l49 43l54 46l49 40l54 43l21 21q64 57 109 92
l-9 -9l9 9l16 16l56 53l-32 -32l-13 -12l-15 -16q28 21 54 38l-32 -32q-26 -17 -54 -38l-8 -8l-6 -7l-32 -32l-9 -9l-9 -10q65 59 124 103l29 23l-5 -5q28 21 55 38l-32 -32q-29 -19 -59 -41q-37 -32 -176 -167l-30 -32l-16 -16q13 -3 16 -7q14 -14 27 -34t27 -47t21 -39
q73 -120 177 -255l-32 -32q-104 134 -177 255q-7 11 -21.5 38t-27 47.5t-26.5 34.5q-4 3 -16 6l-100 -113l-3 -3q12 -139 -7 -216l-32 -32q19 78 5 231q0 6 -2.5 30t-3.5 37l-8 -7l8 8v3q-4 46 -12 152t-13 163zM290 423l3 4l-4 -4h1zM258 390h-1l-5 -6l4 4zM293 427l12 13
l7 6l17 20l32 32l4 3l-6 -6l-4 -4l-22 -25l-32 -32z" />
    <glyph glyph-name="L" unicode="L" horiz-adv-x="460" 
d="M90 663l32 32q-3 -58 -11 -165t-13 -194.5t-6 -165.5q-1 -83 -9 -130q0 -3 -3 -9.5t-3.5 -9.5t1.5 -8q8 -7 75 3q152 25 284 4l-32 -32q-133 20 -284 -4q-67 -11 -75 -3q-3 4 -2.5 7.5t3.5 10t4 9.5q8 46 9 130q1 78 6 165.5t12 194.5z" />
    <glyph glyph-name="M" unicode="M" horiz-adv-x="704" 
d="M93 9q2 77 1.5 229t1.5 229q0 14 -0.5 47t-0.5 54t5 48.5t15 46.5l32 32q45 -62 76.5 -147t46 -158t38 -164t51.5 -154q10 21 27 62l24 58l48 112l40 98l46 119l41 104l32 32q3 -1 8.5 -2.5t10 -3.5t6.5 -6q5 -6 8.5 -33t5.5 -63l3 -36q29 -263 21 -451l-32 -32
q7 188 -21 451l-3 36q-2 36 -6 63t-8 33q-3 3 -8 5q-102 -265 -160 -394q-8 -18 -22 -53.5t-27 -63.5t-27 -51l-32 -32q-30 62 -54 150.5t-38 160.5t-42.5 157t-68.5 147q-4 -5 -3.5 -71.5t0.5 -68.5q-2 -75 -1.5 -228.5t-1.5 -229.5z" />
    <glyph glyph-name="N" unicode="N" horiz-adv-x="596" 
d="M101 30q-4 20 -5 45t-1 42.5t0.5 46.5t0.5 44q0 67 1 200.5t1 200.5l32 32q22 -16 39.5 -39.5t37.5 -57.5t29 -48l72 -101l85 -123q36 -53 66 -104l21 -37l25 -45q12 -21 25 -37q0 38 -8 107.5t-9 98.5q-2 19 -1 63.5t2 63.5l4 63l3 64q0 3 0.5 18.5t1 20t2 17t3 19.5
t5 16.5t8.5 18.5l32 32q-4 -8 -7.5 -18t-5.5 -16.5t-3.5 -19.5t-1.5 -17t-1 -20t-1 -19q-1 -18 -3 -63t-3 -63.5t-2 -63.5t0 -64q1 -26 5 -65l8 -68q4 -30 4 -66.5t-7 -66.5l-32 -32q-19 17 -34.5 39.5t-36.5 60.5l-25 47q-30 51 -67 104l-85 123l-71 101q-8 12 -32.5 53
t-41.5 61q0 -40 -1 -157t-1 -181q0 -14 -0.5 -43t-0.5 -47t1.5 -42.5t4.5 -45.5z" />
    <glyph glyph-name="O" unicode="O" horiz-adv-x="657" 
d="M488 650q-65 18 -115 23.5t-104 -7t-103 -47.5q-37 -48 -56.5 -108.5t-20 -120.5t18 -117.5t53.5 -101t91.5 -70t125.5 -25.5q87 2 162 57q35 50 50.5 119t10 136.5t-39.5 126.5t-93 87q-35 16 -78.5 17t-74.5 -6.5t-77 -21.5l32 32q46 15 77.5 22t74.5 6t78 -17
q62 -28 96 -91q35 -63 38.5 -134t-16 -142t-59.5 -118l-32 -32q-82 -72 -181 -73q-73 -1 -130 27q-58 28 -93 74.5t-52 107t-13.5 123t27.5 124t67 108.5l32 32q51 41 107.5 56t109 10.5t119.5 -24.5z" />
    <glyph glyph-name="P" unicode="P" horiz-adv-x="525" 
d="M436 374q29 41 33 88t-13 87t-48.5 73t-70.5 50.5t-84 14.5t-84 -31q-46 -63 -65 -143q6 -32 8 -53l11 -102l2 2q14 -2 49 -9.5t48 -9.5t41 -6t43.5 -2t39 5.5t45 12.5t45.5 23zM57 624l32 32q-4 -39 7 -102q20 46 52 85l32 32q35 34 77 45t80 0t73 -34.5t57 -60
t31.5 -76t-3 -83.5t-48.5 -81l-32 -32q-27 -17 -50.5 -28t-49.5 -15t-43 -5.5t-48 3t-44.5 7t-52.5 10.5q12 -126 23 -259l-32 -32q-4 23 -17 64t-17 58q-45 192 -13 328q0 2 -3.5 20t-4 22.5t-3 19.5t-3 22t-1.5 19t-0.5 21.5t1.5 19.5z" />
    <glyph glyph-name="Q" unicode="Q" horiz-adv-x="720" 
d="M582 133q23 51 34.5 107.5t10 111.5t-19 105.5t-48.5 89.5t-82.5 62.5t-116.5 24.5q-63 1 -108 -9t-90 -38q-30 -54 -43.5 -119t-5.5 -129.5t34 -120.5t76.5 -96t118.5 -52q104 -17 167 0l-32 -32q-63 -18 -167 0q-71 12 -122 54q-52 42 -77 100.5t-31.5 125.5t10 134
t51.5 120l32 32q51 38 100.5 51t118.5 11q66 -1 117.5 -24.5t82 -62t48.5 -89t19 -106t-10 -112t-35 -107.5zM391 155l32 32q37 -15 75.5 -44t66.5 -57.5t65 -62.5t67 -55l-32 -32q-30 20 -67 54l-66 63q-28 28 -66.5 57.5t-74.5 44.5z" />
    <glyph glyph-name="R" unicode="R" horiz-adv-x="614" 
d="M341 354q119 12 184 64q62 79 15 161q-38 69 -123 97q-108 36 -201 -24q-7 -4 -13 -8q-42 -55 -64 -125q-4 -74 -3 -161q29 2 35 2t35 -1.5t35 -1.5q94 -3 100 -3zM118 624l32 32q-5 -41 -8 -88q19 34 45 63l32 32q89 77 203 53q90 -19 140 -86q55 -76 12 -154
q-11 -21 -30 -41l-32 -32q-38 -38 -97 -59q96 -21 130 -87q15 -29 13.5 -111t7.5 -92q3 -3 7 -5.5t9.5 -4.5t8.5 -4l-32 -32q-3 1 -9 4l-10 4q-4 2 -6 6q-11 21 -9 53t1 79.5t-13 70.5q-26 49 -79 70t-126 26q-59 -6 -171 -3q2 -114 10 -244l-32 -32q-33 170 -32 277h-14
l14 14q2 85 23 153q4 76 12 138z" />
    <glyph glyph-name="S" unicode="S" horiz-adv-x="545" 
d="M490 494q-1 3 -1 20.5t-2 26.5q-11 38 -44.5 68.5t-76 44.5t-89 19.5t-81.5 -4.5q-28 -7 -66 -35q-32 -46 -33 -89v-50q5 -35 35 -62.5t73 -44.5l93 -35l96 -37q44 -17 78.5 -45.5t45 -65.5t-8.5 -95l-32 -32q-35 -33 -85.5 -53t-102.5 -21t-98.5 13.5t-77 54t-33.5 98.5
l32 32q3 -54 29.5 -92t67.5 -54.5t89 -19t96 11t86 39.5q15 55 3 90.5t-47 63.5t-80 45l-94 36l-92 35q-42 17 -71.5 44t-33.5 62q-1 4 0 50q0 29 11 52t34 54l32 32q2 2 10 7.5t10 7.5l10 8q7 5 11 7t10.5 6t11.5 6l11 5q6 2 12 3q36 11 82.5 5.5t88.5 -20t76 -44.5t44 -69
q3 -9 3 -26v-21z" />
    <glyph glyph-name="T" unicode="T" horiz-adv-x="646" 
d="M296 642q1 -15 6 -62t6 -74q3 -75 4 -138q1 -70 0 -177t-1 -139l-32 -32q0 31 0.5 138t0.5 178q-1 63 -4 138q-1 28 -7 82q-6 56 -7 85l3 3q-153 8 -236 0l-24 -24l-17 19l32 32q67 11 150.5 10.5t151.5 -6.5t151.5 -5.5t149.5 11.5l-32 -32q-100 -18 -295 -7z" />
    <glyph glyph-name="U" unicode="U" horiz-adv-x="598" 
d="M84 675l32 32q16 -151 31 -264q2 -15 7 -57q4 -43 8 -72.5t11.5 -72.5t18 -74.5t26 -64t37.5 -53.5t50 -31q26 -11 51 -7.5t43 12t41 25.5q26 33 44.5 70.5t29.5 82t17.5 82.5t8.5 90.5t2.5 85.5t-0.5 90t-1 82l32 32q0 -25 1 -75t1 -81t-1.5 -79.5t-5.5 -82.5
t-12.5 -77.5t-21.5 -77t-33.5 -68.5t-47.5 -63l-32 -32q-21 -17 -35.5 -26.5t-32.5 -16.5t-37.5 -6.5t-42.5 8.5q-28 9 -50.5 30.5t-37.5 53.5t-26 63.5t-18 75t-11 72.5t-8.5 71.5t-6.5 58.5q-20 159 -31 264z" />
    <glyph glyph-name="V" unicode="V" horiz-adv-x="598" 
d="M40 650l32 32q46 -38 102.5 -138t94.5 -189t64 -165q6 -15 15 -50q27 173 112 354q8 18 27.5 55.5t32.5 67t23 58.5l32 32q-9 -28 -22.5 -57.5t-32.5 -67.5l-28 -56q-109 -233 -123 -452l-32 -32q-10 21 -21 62t-15 54q-27 75 -65 164.5t-94.5 189t-101.5 138.5z" />
    <glyph glyph-name="W" unicode="W" horiz-adv-x="873" 
d="M43 644l32 32q35 -79 68.5 -213.5t54.5 -255.5q5 -30 18 -86q12 -57 15 -59h1q12 34 67.5 171.5t84.5 231t32 166.5l32 32q25 -30 47.5 -94t34 -117t26.5 -135l20 -102q1 -3 5 -24.5t9 -41.5l10 -43q5 -23 11 -39t11 -21h1q2 8 5 24l22 116q9 42 26 106q15 61 36 114
q15 38 51 122q38 89 55 138l32 32q-16 -49 -54 -137q-38 -86 -52 -123q-15 -39 -26 -74q-11 -38 -22 -86.5t-16 -73.5l-17 -86l-15 -78l-32 -32q-3 0 -9 0.5t-10 1.5t-7 4q-6 4 -12 20.5t-11.5 39.5t-9.5 43l-9 41q-4 21 -4 25q-2 9 -21.5 114t-39 176.5t-43.5 119.5
q-14 -72 -47 -166t-76.5 -200t-60.5 -156l-32 -32q-3 -1 -8 -4.5t-9.5 -5t-8 0t-15.5 59t-17 86.5q-22 120 -55 254.5t-68 214.5z" />
    <glyph glyph-name="X" unicode="X" horiz-adv-x="606" 
d="M177 152l-41 -56l20 23l20 25l18 24q7 9 18 26l18 24l18 26l16 24l18 26l16 25l-1 3l-20 -29l-51 -77q-16 -24 -49 -64zM521 672l32 32q-147 -184 -243 -317l9 -16l63 89q6 8 34 51.5t39.5 60t34.5 46.5t45 52l32 32q-48 -49 -111 -146l73 85l32 32l22 18l-32 -32l-9 -8
q-62 -70 -127 -159l-21 -30l-69 -100l1 -2l43 62l39 50l36 46l42 51l38 47l32 32l22 17l-32 -32l-6 -5q-102 -124 -139 -174q-29 -40 -70 -102l95 -164q13 -21 50.5 -76t53.5 -88l-32 -32q-16 32 -54 87t-50 77l-91 155q-93 -139 -159 -210l-15 -15l-24 -32l-32 -32l14 19
l-16 -16l17 20q16 25 56 74l101 142l46 70l-9 17q-109 -154 -188 -292l-32 -32l47 79q-14 -17 -28 -32l-32 -32q27 28 52.5 64.5t54.5 84.5l46 71q33 48 73 100l-62 107q-7 10 -22.5 38.5t-25 43.5t-25.5 36.5t-34 35t-38 21.5l32 32q21 -8 39 -21.5t33.5 -34.5t25.5 -36.5
t26 -43.5l21 -39l59 -101l72 92l66 89q49 69 79 105l32 32q-27 -32 -62 -80z" />
    <glyph glyph-name="Y" unicode="Y" horiz-adv-x="594" 
d="M385 381q15 19 24 33q11 18 38 54.5t47 67.5t30 59l8 23l5 16q2 6 2 8.5t-2 3.5q-86 -112 -128 -201q-5 -10 -24 -64zM71 624l32 32l110 -156q82 -115 124 -180l10 13q3 9 13 36.5t17 43.5q43 93 139 214l32 32q21 20 23 19q3 -3 -15 -51q-10 -28 -29.5 -59t-46.5 -67.5
t-39 -54.5q-8 -13 -62 -81q-14 -35 -35 -56l-9 -9q-8 -14 -12 -27q-8 -25 -10.5 -71.5t-1.5 -111.5t0 -78l-32 -32q0 13 -1 77.5t1.5 111.5t11.5 72q6 18 19 39l-128 186z" />
    <glyph glyph-name="Z" unicode="Z" horiz-adv-x="576" 
d="M32 48l7 13q-8 -10 -8 -12zM39 44l8 -2q17 25 56.5 67t45.5 49l210 245q11 13 23 30l20 28l23 33q15 22 20 30l-159 -184l-180 -205l-25 -28q-17 -26 -30 -51zM66 101l-30 -39l12 13zM455 551q-34 -36 -147 -169l-25 -25q-12 -15 -87 -102.5t-109 -136.5q97 105 148 171
l19 19l91 105q80 92 120 142l17 22zM2 27q176 235 458 559l32 32q-224 -258 -373 -448l66 76q47 55 70 84l26 26q113 134 156 178l32 32l16 15q40 55 31 66q-4 1 -12 1t-24 -1.5t-28 -2.5l-26 -4q-12 -1 -13 -1q-59 -8 -194 -1t-193 4l32 32q59 4 194 -3t193 0q2 0 14.5 2
t25 3.5t28 3t24 1.5t11.5 -2q8 -10 -24 -56l9 9l-4 -5l21 21q-34 -34 -84 -109q-50 -74 -75 -104l-210 -245q-10 -12 -40 -43.5t-49.5 -56t-32.5 -49.5q38 -5 105 -3q31 1 89.5 6.5t85.5 6.5q40 2 113.5 -1.5t100.5 -3.5l-32 -32q-28 0 -101 3t-113 2q-28 -1 -86 -6.5
t-89 -6.5q-127 -4 -133 11q-1 2 32 39z" />
    <glyph glyph-name="bracketleft" unicode="[" horiz-adv-x="267" 
d="M204 656q-30 8 -84 7q-2 -14 -7.5 -68t-8 -88.5t-3.5 -68.5q-2 -11 0 -87t2.5 -86.5t4.5 -86.5t4 -87q1 -13 1 -72t0.5 -111.5t0.5 -53.5q12 -23 130 -8l-32 -32q-119 -15 -130 8q-1 1 -1 53t-0.5 111.5t-0.5 72.5q-1 11 -5 86.5t-4 86.5t-2.5 87t0.5 87q1 51 11 149
l10 108l32 32q7 0 28 0.5t31 0.5t26 -2t29 -6z" />
    <glyph glyph-name="backslash" unicode="\" horiz-adv-x="301" 
d="M-50 675l32 32q158 -278 229 -484q9 -25 25.5 -114t41.5 -130l-32 -32q-25 41 -41.5 129.5t-25.5 114.5q-71 205 -229 484z" />
    <glyph glyph-name="bracketright" unicode="]" horiz-adv-x="200" 
d="M-34 663l32 32q10 -1 53.5 1.5t78.5 1t39 -9.5q5 -7 5.5 -57.5t-0.5 -110t-1 -68.5q10 -292 -4 -604l-32 -32q-44 -16 -128 -5l32 32q64 -8 97 -3q12 299 3 580q-1 8 0.5 68t0.5 110t-5 58q-5 8 -40 9t-78.5 -1t-52.5 -1z" />
    <glyph glyph-name="asciicircum" unicode="^" horiz-adv-x="442" 
d="M80 295q5 34 18.5 70t34 78.5t29.5 67.5q46 122 51 134l32 32q3 0 9 -0.5t10.5 -1.5t7.5 -4q6 -5 11.5 -13t10 -20t7 -19.5t6.5 -22t5 -17.5q4 -12 15.5 -58t20.5 -70q11 -27 37 -74t34 -64l-32 -32q-8 16 -34.5 63t-36.5 75q-10 24 -22 70l-14 58q-1 3 -5 17t-6.5 22
t-7 19.5t-10 20t-11.5 13.5q-4 2 -9 4l-19 -53q-13 -35 -18 -47q-9 -24 -29 -66.5t-34 -79t-19 -70.5z" />
    <glyph glyph-name="underscore" unicode="_" horiz-adv-x="545" 
d="M-22 -125l32 32q41 10 88 12t82.5 -2t88 -10.5t84.5 -8.5q48 -3 169 12l-32 -32q-121 -15 -169 -12q-32 2 -85 8.5t-88 10t-82 2t-88 -11.5z" />
    <glyph glyph-name="grave" unicode="`" horiz-adv-x="184" 
d="M41 699l32 32q24 -53 88 -132l-32 -32q-64 79 -88 132z" />
    <glyph glyph-name="a" unicode="a" horiz-adv-x="531" 
d="M354 121q-16 -24 -38 -50l-32 -32q-3 -2 -12 -9t-12 -10l-12 -8q-8 -6 -13 -9t-13 -7l-14 -6q-7 -3 -14 -4q-42 -9 -77.5 -5t-58.5 23.5t-33 45.5t-2.5 60.5t34.5 69.5l32 32q34 29 71 41.5t64 11.5t61.5 2t60.5 15q23 59 -3 118q-14 29 -37.5 43t-50 14t-58 -9.5
t-57.5 -22t-52 -29.5l-7 -15l-32 -32l14 31l32 32q20 14 41.5 26.5t50.5 26t55.5 19.5t52 5.5t47 -15t33.5 -42.5q15 -33 13.5 -70t-19.5 -67l-32 -32q-28 -19 -62.5 -25.5t-62 -4.5t-64.5 -6.5t-70 -30.5q-26 -41 -26 -80t22.5 -63.5t61.5 -36t90 1.5q31 8 75 42
q33 42 46 80q-14 46 -6 94l32 32q26 -39 7 -94q14 -47 48 -86.5t80 -64.5l-32 -32q-88 46 -122 132z" />
    <glyph glyph-name="b" unicode="b" horiz-adv-x="387" 
d="M66 595l32 32q8 -45 12 -99.5t5 -88t1.5 -103t0.5 -92.5q12 25 31 47l32 32q64 60 122 14q50 -38 60 -117q12 -86 -37 -144l-32 -32q-48 -43 -92 -43.5t-91 43.5l32 32q80 -75 162 -16q33 64 25 133.5t-57.5 109.5t-104.5 4q-26 -38 -34.5 -79t-10.5 -104l-32 -32
q-4 53 -6 229.5t-18 273.5z" />
    <glyph glyph-name="c" unicode="c" horiz-adv-x="460" 
d="M405 370q-19 33 -54 42t-75 -3t-75 -29.5t-65 -39.5q-58 -78 -55 -135t50 -93.5t117 -51.5t146 -9l-32 -32q-52 -5 -102 1t-93.5 21.5t-73 42.5t-40.5 61t5 81.5t61 100.5l32 32q27 23 63.5 43.5t80 35.5t83 7.5t59.5 -43.5z" />
    <glyph glyph-name="d" unicode="d" horiz-adv-x="460" 
d="M355 383q-25 29 -65 32t-74.5 -10t-68.5 -35q-28 -32 -35 -60q-11 -43 -2 -90q10 -47 34 -82.5t58.5 -60.5t75.5 -24t83 27q20 31 31 65t11.5 76t-1 69.5t-8.5 79.5q-7 51 -9 72q-12 119 -12 246l32 32q0 -124 12 -246q2 -23 8 -66q6 -46 9 -73t2.5 -65.5t-6.5 -68.5l6 6
q-5 -15 -8 -31.5t-4 -35.5t-1 -31v-35v-34l-32 -32q0 91 1 102q-5 -7 -11 -14l-32 -32q-30 -27 -62.5 -37t-61 -4.5t-55.5 22t-46 42.5t-33 57t-16 65.5t5 68.5q2 8 6 17t7.5 15t11.5 16l11 13q2 3 12 14l13 13l32 32q25 17 51 28.5t56.5 19t59 0t47.5 -30.5z" />
    <glyph glyph-name="e" unicode="e" horiz-adv-x="515" 
d="M158 402q-40 -66 -38 -147l5 5q37 15 97 16h127q66 1 110 16q5 31 -24 58t-72 42t-86.5 22t-69.5 5q-19 -2 -26.5 -5t-22.5 -12zM173 424l17 10l12 7q3 2 9 4.5t12 3.5t16 2q23 3 59 -2t74.5 -17t69.5 -30.5t44.5 -43t-2.5 -56.5l-32 -32q-34 -16 -80.5 -22.5t-86 -5
t-86.5 1t-78 -7.5q8 -79 58 -135t133 -64q51 -4 84 4.5t66 39.5l-32 -32q-33 -32 -66.5 -40.5t-83.5 -3.5q-69 6 -117 48.5t-64.5 100t-6.5 122.5t49 116z" />
    <glyph glyph-name="f" unicode="f" horiz-adv-x="289" 
d="M234 633q-15 22 -33.5 25.5t-38.5 -6.5q-9 -13 -14 -37q-12 -57 -8 -142q61 1 105 1l-32 -32q-33 0 -71 -1l3 -47l3 -48q7 -117 7 -284l-32 -32q0 166 -7 284l-4 58q-4 44 -5 68q-10 0 -83 -2l-25 -25l16 25l32 32l60 2q-1 63 9 111q2 9 3.5 15t4 11.5t4.5 8.5l8 11
l10 16l32 32q26 16 48.5 15t39.5 -27z" />
    <glyph glyph-name="g" unicode="g" horiz-adv-x="446" 
d="M246 453q-22 13 -44 12.5t-38.5 -9t-36.5 -25.5q-79 -97 -56 -211q17 -88 84 -130q77 -49 162 3q4 3 9 6q22 48 29 103t3 98.5t-15 107.5l32 32q33 -73 44.5 -187.5t-3.5 -230t-55 -184.5l-32 -32q-30 -19 -82.5 -30t-105.5 -0.5t-67 49.5q-2 5 -2.5 11.5t0.5 14.5t1 13
l32 32q0 -4 -0.5 -12t-0.5 -14.5t2 -12.5q13 -34 58 -46t91.5 -6t84.5 22q33 72 45 181t1 215q-8 -53 -33 -102l-32 -32q-86 -79 -173 -45q-68 27 -98 105q-39 100 13 201q17 33 44 63l32 32q20 18 33 28t31 19t36.5 7t38.5 -14z" />
    <glyph glyph-name="h" unicode="h" horiz-adv-x="438" 
d="M98 260q27 59 73 109l32 32q126 89 181 -91q35 -117 31 -278q0 -11 -1 -20l-32 -32q7 126 -19 249q-18 86 -48.5 128t-73.5 40q-27 -1 -59 -21zM98 260q-1 -130 -14 -222l-32 -32q15 109 13.5 321t11.5 322l32 32q-7 -63 -9.5 -127.5t-2 -165t0.5 -128.5z" />
    <glyph glyph-name="i" unicode="i" horiz-adv-x="130" 
d="M43 424l32 32q14 -73 18 -210.5t7 -171.5l-32 -32q-3 33 -7.5 170.5t-17.5 211.5zM100 690q7 -6 7 -16t-6.5 -16.5t-16.5 -6.5t-16.5 6.5t-6.5 16.5t6.5 16.5t16.5 6.5t16 -7z" />
    <glyph glyph-name="j" unicode="j" horiz-adv-x="144" 
d="M80 431l32 32q0 -27 2 -109t-2 -109q-4 -50 -31 -239l-3 -26q-3 -18 -4 -26.5t-4 -24t-6 -25.5t-8 -23t-12 -25l-32 -32q-23 -11 -39 -12.5t-40 4.5l32 32q36 -7 58 0q6 14 10.5 32.5t6 26.5t5 36t4.5 31q27 188 31 239q3 27 1 109t-1 109zM114 641q7 -6 7 -16
t-6.5 -16.5t-16.5 -6.5t-16.5 6.5t-6.5 16.5t6.5 16.5t16.5 6.5t16 -7z" />
    <glyph glyph-name="k" unicode="k" horiz-adv-x="449" 
d="M360 436l3 3l19 19l-31 -28l27 27l36 33l-19 -19l-17 -19l-32 -32l-26 -23q-61 -67 -104 -127q17 -27 72 -80.5t56 -55.5q17 -19 43.5 -57t38.5 -53l-32 -32q-13 15 -39.5 53t-42.5 57l-54 53q-50 49 -69 75q-55 -88 -69 -162l-32 -32q0 51 6 145q7 93 8 133
q3 109 -18 297l32 32q21 -188 18 -297q-1 -40 -6 -111q-5 -72 -6 -99q24 48 62 102q-10 15 -11 26q-1 3 1.5 6.5t7 7.5t6.5 6l20 20l6 6q-5 -4 -6 -6l6 6l6 6l115 98l11 11l5 5l-10 -11zM205 299v-3q1 -8 8 -20q41 53 96 111z" />
    <glyph glyph-name="l" unicode="l" horiz-adv-x="140" 
d="M85 608l32 32q-5 -57 -5 -164.5t-1 -130.5q-8 -285 -8 -305l-32 -32q0 19 8 305q0 22 0.5 129.5t5.5 165.5z" />
    <glyph glyph-name="m" unicode="m" horiz-adv-x="704" 
d="M54 466l32 32q-1 -14 -1.5 -30.5t0 -28t2 -32t2 -28t3 -32t2.5 -29.5q5 -47 8 -101q39 100 116 177l32 32q64 35 94 8q46 -41 57 -184q34 72 84 122l32 32q63 51 103 14t48.5 -118t13.5 -160t-2 -113l-32 -32q12 342 -68 397q-35 23 -86 -13q-61 -74 -91 -175
q2 -122 -17 -194l-32 -32q-14 91 16 194q-4 181 -58 230q-29 26 -89 -6q-104 -121 -118 -266v-84l-32 -32q-5 41 -1 83q-2 105 -10 189q-1 4 -3.5 28.5t-3 32t-2 28t-1.5 31.5v28q0 17 2 32z" />
    <glyph glyph-name="n" unicode="n" horiz-adv-x="449" 
d="M73 411l32 32q5 -70 7 -125q26 51 75 104l32 32q81 60 136 25q34 -21 51.5 -63.5t19.5 -98t-1.5 -105.5t-10 -107.5t-6.5 -83.5l-32 -32q0 26 6 83t9.5 107.5t2 105.5t-19 98t-51.5 64q-52 32 -126 -18q-66 -79 -84 -167q1 -108 -8 -200l-32 -32q-7 133 7 200
q-1 77 -7 181z" />
    <glyph glyph-name="o" unicode="o" horiz-adv-x="495" 
d="M396 105q20 24 30 50q13 35 13.5 79t-12 84.5t-43.5 68.5t-75 29q-19 0 -36.5 -3t-39.5 -13l-31 -14q-10 -5 -37.5 -21t-30.5 -18l32 32q6 4 28 17l33 18q10 6 28.5 14.5t34.5 13t32 6.5q-89 20 -184 -53q-2 -2 -8.5 -11t-8.5 -12l-7 -11q-6 -8 -8 -13l-8 -12
q-4 -7 -6 -12l-6 -12q-3 -7 -5 -14q-16 -55 -9 -96q8 -43 29 -74.5t56.5 -49t74.5 -22t82.5 8t81.5 40.5zM380 86q-33 -28 -71 -44t-74 -18t-71 6.5t-61 29t-44 50t-20.5 69.5t10.5 87q4 14 12.5 30.5t16.5 27.5l20 28q13 17 18 25l32 32q28 24 53 39.5t53.5 26.5t59.5 10.5
t64 -12.5l-25 -25q41 -5 69.5 -33.5t39.5 -68t10 -82.5t-14 -77q-3 -9 -6.5 -16.5t-8.5 -14.5l-8 -11q-3 -4 -11 -13t-12 -14z" />
    <glyph glyph-name="p" unicode="p" horiz-adv-x="475" 
d="M386 115q21 30 29.5 67t3.5 71.5t-18 66.5t-36 53.5t-50 32.5t-62 3t-70 -35q-77 -99 -87 -252l1 -52l25 25q120 -88 264 20zM63 402l32 32q0 -79 1 -189q24 61 67 111l32 32q89 85 168 44q60 -31 82 -111q25 -93 -23 -169q-8 -12 -17 -23l-32 -32q-47 -39 -89.5 -58
t-91.5 -16t-95 35v-141q1 -33 0 -60l-32 -32v60q-1 17 -1.5 50t-1 53.5t-0.5 49t2 51.5q-1 218 -1 313z" />
    <glyph glyph-name="q" unicode="q" horiz-adv-x="462" 
d="M407 139q-12 -22 -27 -40l-32 -32q-29 -24 -56 -30t-68 -1q-63 7 -104.5 35t-58 67.5t-15.5 87.5t18.5 97t48.5 93l32 32q36 36 72 47l-32 -32q-26 -9 -45 -23q-29 -44 -45.5 -92t-16 -94.5t17.5 -85.5t58 -66t102 -34q66 -7 106 18q33 50 40 122q-4 34 -10.5 70t-16 84
t-13.5 71l32 32q50 -112 40 -225q5 -40 5 -77q1 -39 -2.5 -107t-4.5 -108t5 -107l-32 -32q-6 66 -5 106.5t4 108t3 107.5v8z" />
    <glyph glyph-name="r" unicode="r" horiz-adv-x="412" 
d="M74 420l32 32q-11 -92 -10 -200q25 92 113 192l32 32q30 24 51 31.5t38 -2t29.5 -27t29.5 -51.5l-32 -32q-16 32 -28 49t-27.5 27.5t-34.5 6t-44 -23.5q-27 -32 -46 -60.5t-31 -60t-19 -54.5t-11 -62t-5 -64t-2 -78q-1 -10 -1 -16l-32 -32q-24 220 -2 393z" />
    <glyph glyph-name="s" unicode="s" horiz-adv-x="418" 
d="M363 359q-2 41 -38.5 68.5t-81 35.5t-84.5 3q-48 -7 -97 -42q-21 -31 -8.5 -55.5t48 -39.5t81 -30.5t91 -28.5t77 -34t39.5 -47.5t-21 -67.5l-32 -32q-208 -84 -327 -17l32 32q115 -64 310 11q15 33 -2 59t-54.5 41.5t-83.5 31.5t-89 28.5t-72.5 32t-33.5 42.5t29 61
l32 32q57 48 113 55q29 4 63 0t65.5 -15.5t53 -35.5t22.5 -56z" />
    <glyph glyph-name="t" unicode="t" horiz-adv-x="282" 
d="M-25 402l32 32q31 10 70 15q-6 89 5 134q1 4 3 8t5 9l6 8l32 32q-1 -3 -4.5 -7.5t-6 -9t-3.5 -8.5q-12 -51 -2 -162q60 5 147 -1l-32 -32q-64 4 -112 2q10 -105 10 -131q1 -25 -2.5 -73.5t-4 -76.5t6.5 -73q12 -50 86 -53l-32 -32q-75 2 -86 53q-7 45 -6.5 72.5t3.5 76.5
t3 74q-1 20 -3 45.5t-6 61.5l-5 54q-60 -4 -104 -18z" />
    <glyph glyph-name="u" unicode="u" horiz-adv-x="459" 
d="M59 395l32 32q4 -45 19 -122.5t45 -159t61 -100.5q23 -13 36 -13.5t34 5.5q62 98 69 351l32 32q21 -27 28.5 -79.5t6 -103.5t1 -109.5t13.5 -93.5l-32 -32q-14 44 -14.5 158t-7.5 154q-16 -201 -87 -276l-32 -32q-8 -2 -20 -4.5t-15.5 -2.5t-11 0.5t-14.5 3.5t-18 10
q-32 18 -61.5 99.5t-45 159t-18.5 123.5z" />
    <glyph glyph-name="v" unicode="v" 
d="M29 441l32 32q43 -60 101 -183t88 -172q18 100 54 196t86 169l32 32q-58 -85 -97.5 -201.5t-52.5 -229.5l-32 -32q-42 59 -104.5 193t-106.5 196z" />
    <glyph glyph-name="w" unicode="w" horiz-adv-x="674" 
d="M13 420l32 32q23 -32 50.5 -107t30.5 -82q23 -51 75 -158q0 8 1 15q16 200 80 322l32 32q3 0 9 1t11 0.5t8 -2.5q10 -5 25 -33t35 -79l34 -88l35 -101q22 -64 27 -77q5 23 14 74t16 80t19 70t30 74.5t42 62.5l32 32q-35 -42 -58 -99.5t-33 -106.5l-22 -116
q-13 -68 -26 -110l-32 -32q-6 15 -44 125t-73 196t-53 96q-4 2 -11 2q-49 -116 -65 -291q-1 -11 -2 -47q0 -36 -4 -57l-32 -32q-93 193 -102 215q-3 6 -30.5 81.5t-50.5 107.5z" />
    <glyph glyph-name="x" unicode="x" horiz-adv-x="440" 
d="M251 272q55 79 110 149q-59 -66 -116 -139zM167 203l-43 -74l88 120l-5 7zM4 -22q10 22 27 49t27 41t37 49t31 41l9 12q32 54 63 100l-10 14q-24 32 -76.5 90.5t-74.5 89.5l32 32q23 -30 75 -88.5t76 -91.5l5 -6q65 94 129 162l32 32q-77 -82 -156 -201l2 -2l128 173
l32 32l-156 -211l6 -9q66 83 134 155l9 11l32 32l-8 -10q-77 -97 -153 -209q25 -38 74.5 -121t78.5 -126l-32 -32q-29 42 -77.5 123t-70.5 115q-64 -96 -128 -204l-32 -32q78 131 155 244l-8 12q-93 -125 -177 -265l-32 -32l42 68l-6 -6l64 114q-49 -65 -71 -113z" />
    <glyph glyph-name="y" unicode="y" horiz-adv-x="435" 
d="M12 -184l32 32q20 1 29 2t21 4t25 10q50 62 97 164l-25 -25q-28 18 -48 50t-30.5 65t-18 80t-9.5 80.5l-5 81.5l-3 67l32 32q2 -19 4.5 -65.5t4.5 -79.5t8.5 -79t17 -79.5t29.5 -65.5t45 -51l11 17q34 79 85.5 225.5t65.5 182.5l32 32q-6 -76 -51.5 -199t-99.5 -208
q-65 -148 -135 -221l-32 -32q-22 -13 -37 -16t-45 -4z" />
    <glyph glyph-name="z" unicode="z" horiz-adv-x="489" 
d="M388 391l25 23q5 5 7 10l-14 -15zM65 62q14 21 32 45q-34 -39 -33 -44zM234 291q-112 -115 -160 -185q72 92 160 185zM43 420l32 32q94 -2 111 -1q17 2 56 9l68 14q30 5 68 8t53 -5q22 -7 22 -15v-2l13 13l-13 -14q-1 -7 -10.5 -17.5t-11.5 -12.5l-32 -32l-32 -29l-9 -9
l-25 -25l-24 -28l-32 -32l24 28l25 25l23 25l7 7l-131 -116l-77 -81q-50 -61 -73 -103l59 66l32 32l9 9l13 15l19 19l20 24l32 32l-20 -24l-36 -39l-32 -32l-11 -11q-54 -60 -81 -93q22 -5 78.5 -7.5t103.5 -2.5t109 1h63l-32 -32q-1 0 -61.5 -0.5t-107.5 -0.5t-103 2t-80 6
l-14 -14l-1 -1q3 8 8 17q-9 3 -10 6q-3 7 83 99q55 67 189 206l32 32l26 22l-32 -32l-20 -17q-98 -101 -151 -165l60 62l32 32l132 117l37 40q1 1 1 3q0 8 -17 13l-10 -10l-5 -3l-24 -24q-18 -13 -102 -86q-123 -130 -215 -260l-32 -32l21 29l-16 -16q17 29 38 57t49 59
l46 51l52 56l49 49l32 32l41 35q33 30 52 45q-15 -9 -30 -20l-12 -10l-29 -29l-18 -17l32 32l18 17l3 3q-46 -33 -129 -112l-71 -73q-20 -21 -57 -66t-54 -77l-32 -32q11 21 28.5 45.5t42.5 53.5l42 46l49 50q32 33 39 41l32 32q101 96 149 129l9 8l-5 -5l7 5q-16 6 -53 3
t-67 -9l-66 -12q-37 -8 -54 -9q-18 -2 -111 1z" />
    <glyph glyph-name="braceleft" unicode="{" horiz-adv-x="318" 
d="M264 658q-17 12 -29.5 13t-28.5 -8q-29 -41 -42 -86.5t-13.5 -79.5t-12 -78t-37.5 -82l-32 -32q-21 -19 -61 -35q1 -4 2 -7q7 -10 30.5 -21t49.5 -28t39 -43q17 -32 21.5 -71.5t3.5 -71.5t3.5 -64.5t27 -61.5t66.5 -51l-32 -32q-45 22 -67.5 51t-26.5 61t-3.5 64t-4 72
t-20.5 72q-13 25 -39 42t-50 28.5t-30 21.5q-2 3 -2.5 7t0 9.5t0.5 8.5l32 32q7 4 32.5 14.5t38.5 18.5q22 37 31 82t10 80t19 82.5t56 92.5l32 32q18 9 26 11.5t19 0.5t24 -12z" />
    <glyph glyph-name="bar" unicode="|" horiz-adv-x="153" 
d="M85 697l32 32q-12 -66 -16.5 -136t-1.5 -150t6.5 -133.5t12.5 -150t12 -136.5l-32 -32q-3 40 -12.5 136.5t-13 150t-6.5 133.5t2 149.5t17 136.5z" />
    <glyph glyph-name="braceright" unicode="}" horiz-adv-x="354" 
d="M-23 677l32 32l35 -11q24 -7 35 -11t30 -13t29.5 -18.5t21 -25t15.5 -35.5q8 -29 5 -57l-8 -61q-4 -32 -6.5 -60t8 -55t35.5 -47q16 -12 36 -19.5t47 -15t39 -12.5l-32 -32q-54 -23 -93 -55q-24 -30 -29.5 -59.5t-1 -55.5t-3.5 -71q-2 -13 -9 -27t-13 -22.5t-18 -23.5
l-18 -21l-32 -32q-41 -39 -77 -67l32 32q26 20 53 44q1 3 8.5 11.5t9.5 11.5t8 10.5t8 12.5l7 11q4 7 6 14t3 14q3 32 3 59t-1 47t10 45t38 53l32 32q25 24 58 43l-22 6q-14 4 -22 6.5t-20 7t-21.5 9.5t-17.5 12q-25 19 -35.5 46.5t-8 55t6.5 59.5l8 61q3 29 -5 58
q-6 19 -16.5 34.5t-20.5 25t-29.5 19t-30.5 13.5t-35.5 11.5t-33.5 10.5z" />
    <glyph glyph-name="asciitilde" unicode="~" horiz-adv-x="551" 
d="M434 200q-32 -29 -67 -29.5t-66.5 18.5t-60.5 42t-60 41t-54 16q-27 -3 -59 -31q-23 -26 -34 -47t-11 -50l-32 -32q0 7 1 14t2 13t3 13l4 10q2 4 7 11t6.5 10t8 10.5t8 10t9 11t9.5 10.5l32 32q1 1 7 6t7 6t6.5 6t7.5 7l8 5q5 4 8 5t8 4t8 4l9 2q5 2 9 2q23 3 52 -13
t54.5 -37.5t57.5 -41t60 -24.5t63 12l29 47q18 31 22 37l32 32q-57 -93 -62 -100z" />
    <glyph glyph-name="exclamdown" unicode="&#xa1;" horiz-adv-x="194" 
d="M126 295l32 32q0 -56 5.5 -152.5t7.5 -154t-4 -152.5l-32 -32q5 95 3 152.5t-7 153.5t-5 153zM133 474q7 -6 7 -16t-6.5 -16.5t-16.5 -6.5t-16.5 6.5t-6.5 16.5t6.5 16.5t16.5 6.5t16 -7z" />
    <glyph glyph-name="cent" unicode="&#xa2;" horiz-adv-x="473" 
d="M213 47q2 31 6 52q3 15 11 63q9 52 13 72l12 62q8 41 17 72.5t19 62.5q-49 -3 -100.5 -27.5t-93.5 -58.5q-45 -66 -39 -127.5t49.5 -108.5t105.5 -62zM346 555l32 32q-31 -54 -54 -124q52 4 90 -20q8 -4 14.5 -13.5t9 -16t6.5 -20.5l6 -17l-32 -32q-1 3 -6 17l-8 21
q-2 6 -8.5 15t-13.5 14q-30 18 -69 20q-8 -28 -15.5 -57.5t-14.5 -64.5l-11 -57q-4 -21 -11 -64t-10 -57q-3 -20 -8 -90q66 -6 125 29q22 30 25 69l32 32q-2 -29 -12 -49t-33 -45l-32 -32q-51 -34 -108 -37q-1 -11 -3 -21l-32 -32q3 21 6 54q-43 4 -80.5 24t-63 52.5
t-37 70.5t-1 83t44.5 86l32 32q37 36 90.5 65.5t105.5 38.5q19 51 44 94z" />
    <glyph glyph-name="sterling" unicode="&#xa3;" horiz-adv-x="474" 
d="M-1 313l32 32q29 -4 61 -6q-14 50 1 110t48 110l32 32q28 23 92 30t121 -8t64 -48q0 -9 1.5 -11t-1 -10.5t-3 -10t-4 -10t-4.5 -10.5l-32 -32q0 1 4 9.5t4 10t2.5 10t1.5 10.5t-1 12q-7 30 -55.5 45t-106.5 12t-95 -19q-27 -49 -37.5 -98.5t1.5 -102.5q5 -17 16 -35
l75 -3q50 -2 73 -3l-32 -32q-20 1 -91 3q14 -17 20 -27.5t10.5 -27t-1.5 -33.5t-22 -38l-20 -20l-12 -12q-21 -21 -29 -27q-33 -39 -31 -42q3 -4 42 6t87 23.5t62 15.5q31 4 55.5 -4t38.5 -21t36.5 -31.5t44.5 -29.5l-32 -32q-23 10 -45.5 28.5t-36.5 31.5t-38 21.5t-55 4.5
q-15 -2 -63 -16t-86.5 -24t-41.5 -5q-3 4 50 64l32 32l15 11q14 20 18.5 37t-1.5 33t-13 27t-20.5 29t-20.5 29q-64 3 -110 10z" />
    <glyph glyph-name="currency" unicode="&#xa4;" horiz-adv-x="490" 
d="M91 163l14 14q-65 44 -60 121t76 151l32 32q29 21 51 26.5t55 -2.5q97 27 146 -39q18 20 30 36l32 32q-9 -11 -61 -70q35 -50 31.5 -127t-41.5 -136q33 -21 43 -50l-32 -32q-10 28 -41 48l-12 -12q-50 -20 -130 -14q-69 5 -114 32q-16 -29 -27 -58l-32 -32q13 37 40 80z
M116 459q-5 1 -10 3l-8 2q-4 1 -9.5 4t-7.5 4t-8.5 5.5t-7.5 5t-8.5 5.5t-7.5 6l32 32q2 -1 7.5 -5t7.5 -5t6.5 -4.5t7 -4.5t7 -3.5t7.5 -4t7 -3t8.5 -3t8.5 -2.5zM324 188l32 32q17 -7 27 -12q24 55 22 119t-32 104l-4 -4l4 5q-44 62 -131 44l-7 -7q-5 2 -9 3q-9 -3 -19 -6
l9 9q-40 10 -85 -19q-55 -70 -53.5 -140t63.5 -109l4 3l-4 -4q45 -28 115 -33q59 -4 93 3z" />
    <glyph glyph-name="yen" unicode="&#xa5;" horiz-adv-x="495" 
d="M-1 380l32 32q23 18 57 24q-50 121 -69 147l32 32q21 -27 82 -176.5t74 -167.5l9 1l10 10l16 34l18 36q6 13 16.5 31t21.5 33q20 27 68 78t69 80l32 32q-21 -28 -68.5 -79t-68.5 -79q-22 -30 -51.5 -91.5t-41.5 -81.5q143 18 214 -7l-32 -32q-66 23 -194 9
q-8 -124 8 -218l-32 -32q-18 103 -7 240q-11 -4 -15 -1q-2 1 -5 4q-61 -9 -134 -25l32 32q47 11 89 18q-13 27 -64 152l-6 -6q-4 -1 -14.5 -2.5t-14.5 -2t-12.5 -2.5t-13.5 -3.5t-12 -4t-13 -6.5zM368 409l32 32q23 4 72 4l-32 -32q-49 0 -72 -4z" />
    <glyph glyph-name="brokenbar" unicode="&#xa6;" horiz-adv-x="124" 
d="M60 631l32 32q4 -56 8 -92l-32 -32q-5 36 -8 92zM69 197l32 32q0 -45 -3 -84l-32 -32q3 39 3 84z" />
    <glyph glyph-name="section" unicode="&#xa7;" horiz-adv-x="486" 
d="M114 389q-26 -33 -37 -63t-9.5 -53t15.5 -45.5t32.5 -39t47.5 -35t53 -31.5l57 -30q33 -17 53 -29q41 7 70 26q30 45 33.5 82.5t-12.5 63t-48.5 50.5t-66 42.5t-74.5 42.5t-65 47l-14 -14q-6 -2 -14 -4q-10 -2 -18 -8q-2 -1 -3 -2zM394 525q-20 29 -44.5 54t-56.5 45
t-64 24t-68 -8q-13 -24 -19 -59q-5 -37 7 -68.5t36.5 -54.5t56.5 -44t66 -39t65 -37.5t53.5 -42t32.5 -49t0 -63t-43 -79.5l-32 -32q-17 -15 -35 -24q22 -15 35.5 -29.5t22 -31.5t6 -36.5t-15.5 -41.5l-32 -32q-177 -162 -252 -16q-10 18 -16 57t-7 45l32 32q2 -6 8 -45
t15 -57q70 -133 224 -8q23 44 1 78t-77 68q-12 -2 -28 -4l13 13l-54 29l-58 31q-22 12 -51.5 32t-44 36t-26.5 40.5t-9 48.5t19 56t48 67l32 32l19 14q-54 54 -43 123q8 50 39 85l32 32q28 15 57.5 15.5t55 -9.5t51 -28.5t45.5 -40t36 -46.5z" />
    <glyph glyph-name="dieresis" unicode="&#xa8;" horiz-adv-x="267" 
d="M237 631q7 -6 7 -16t-6.5 -16.5t-16.5 -6.5t-16.5 6.5t-6.5 16.5t6.5 16.5t16.5 6.5t16 -7zM62 645q7 -6 7 -16t-6.5 -16.5t-16.5 -6.5t-16.5 6.5t-6.5 16.5t6.5 16.5t16.5 6.5t16 -7z" />
    <glyph glyph-name="copyright" unicode="&#xa9;" horiz-adv-x="705" 
d="M615 140q29 37 34 76q7 54 -22 138t-76 158.5t-91 109.5q-34 26 -89 34l3 3q-47 24 -134.5 -9t-152.5 -83q-95 -135 -77 -263q9 -60 53 -112t103.5 -83.5t126 -48t123.5 -12.5q96 8 199 92zM602 124q-113 -100 -218 -108q-57 -5 -123.5 11.5t-126.5 48.5t-103.5 84
t-52.5 112q-20 135 87 277l32 32q33 31 90.5 62.5t119.5 49t101 -1.5l-3 -3q54 -8 87 -34q44 -35 91 -108q47 -75 76.5 -159.5t21.5 -138.5q-6 -46 -47 -92zM459 411q-25 47 -75 77t-100 17q-19 -5 -38 -21q-30 -45 -47.5 -95t-7.5 -91t64 -75q118 -73 246 -1q0 2 0.5 2.5
t-1.5 2.5l-4 3q-1 2 -4.5 6t-6.5 9l32 32q5 -5 9.5 -10.5t6 -6t1.5 -4t-1 -4t-4.5 -6.5t-6.5 -12l-32 -32q-46 -29 -88.5 -41t-87.5 -5t-91 35q-54 33 -64 75t9 94t50 98l32 32l14 14q12 11 17 15t15 10t20 8q51 13 101 -17t74 -77z" />
    <glyph glyph-name="ordfeminine" unicode="&#xaa;" horiz-adv-x="371" 
d="M264 565q-7 -31 1 -61q18 36 -1 61zM283 610q19 -15 22.5 -31.5t-2 -30t-20.5 -36.5l-15 -15q20 -61 80 -63l-32 -32q-32 1 -52.5 18.5t-29.5 46.5q-63 -49 -108 -61q-51 -14 -76 4q-26 19 -23 54.5t28 71.5l32 32q20 16 39 21.5t48.5 7t41.5 4.5q8 24 -1.5 46t-35.5 30
q-45 12 -112 -25l-21 -21l17 19l32 32q70 40 116 27q24 -6 34 -25.5t6 -41t-18 -38.5l-32 -32q-19 -5 -61 -8t-64 -14q-13 -26 -15.5 -49.5t7 -41t31.5 -24t59 2.5q34 9 74 36q-7 27 -2 55.5t21 48.5z" />
    <glyph glyph-name="guillemotleft" unicode="&#xab;" 
d="M100 291q47 45 126 102l-32 -32q-57 -42 -94 -74q-2 -15 5 -29.5t18 -24t29.5 -19.5t31.5 -15l30 -12l-32 -32q-24 8 -40 15.5t-37.5 20.5t-31 30.5t-5.5 37.5zM295 284q78 65 127 90l-32 -32q-46 -24 -106 -72q-3 -6 -1 -10q1 0 28 -15l57 -31q31 -17 37 -21l-32 -32
q-6 4 -37 21l-58 30q-27 15 -27 16q-2 3 0 7t6 9t6 8z" />
    <glyph glyph-name="logicalnot" unicode="&#xac;" horiz-adv-x="523" 
d="M16 334l32 32q115 -15 327 -15q9 0 25 -0.5t29 -0.5t24 1q3 1 11 5t12 1q7 -5 12 -34t8.5 -67.5t3.5 -42.5l-32 -32q-1 4 -4 42t-8 67.5t-12 34.5q-4 2 -12.5 -2t-10.5 -4q-11 -2 -24.5 -2t-29.5 1t-24 1q-212 0 -327 15z" />
    <glyph glyph-name="registered" unicode="&#xae;" horiz-adv-x="675" 
d="M500 106q81 89 104 163q15 56 15.5 109t-18.5 100t-51 82.5t-81.5 56.5t-109.5 22q-52 1 -90 -4t-75 -22l21 21q-36 0 -79 -36q-33 -49 -46.5 -99t-17.5 -120q-3 -67 5.5 -118.5t32.5 -95t70.5 -71t114.5 -38.5q61 -11 110 0t95 50zM482 86q-50 -47 -100 -60t-119 -2
t-115 38.5t-70.5 70.5t-33.5 95q-8 50 -4 119q4 73 18 124q15 52 52 103l32 32l18 16q5 5 16 14t18 13.5t18 9.5t20 6.5t21 1.5t23 -4l-1 -1q43 11 116 9q61 -1 110.5 -22t81 -56t51 -82t18.5 -100t-16 -110q-14 -48 -44.5 -90.5t-77.5 -92.5zM223 492l32 32q-5 -17 -6 -41
l29 29q31 24 68.5 31.5t68.5 -2t48.5 -39.5t9.5 -75l-32 -32q-36 -33 -78 -44q56 -28 79.5 -72.5t23.5 -124.5l-32 -32q0 97 -36.5 144t-131.5 79l32 32q49 -1 81.5 3.5t62.5 23.5q4 38 -11 65t-42 37t-60 7t-63 -19q-9 -17 -16 -36q1 -8 5 -45.5t3 -55.5q-1 -28 -4 -58
t-10 -73l-8 -58l-32 -32q0 19 -4 88.5t-0.5 115.5t18.5 86q-3 41 5 66z" />
    <glyph glyph-name="macron" unicode="&#xaf;" horiz-adv-x="318" 
d="M-33 625l32 32q34 7 75.5 10t70 3t79 -1t71.5 -1l-32 -32q-22 0 -72.5 0.5t-78.5 0.5t-69.5 -3t-75.5 -9z" />
    <glyph glyph-name="degree" unicode="&#xb0;" horiz-adv-x="322" 
d="M249 448q26 48 16 99.5t-57 72.5l-3 -3l-2 6q-11 4 -24 7l12 12q-24 22 -76 -16q-16 -37 -18.5 -74t8.5 -64t31 -44t50 -16.5t63 20.5zM241 434q-31 -26 -61 -34.5t-52 -1t-38 27t-22.5 47t-2 61.5t21.5 68l32 32q13 13 28 24t33 19.5t33.5 3.5t22.5 -26
q35 -14 51.5 -46.5t12 -70t-26.5 -72.5z" />
    <glyph glyph-name="plusminus" unicode="&#xb1;" horiz-adv-x="531" 
d="M40 261l32 32q69 0 181 7q4 85 4 133l32 32q0 -46 -5 -164q149 9 221 9l-32 -32q-70 0 -190 -7q-3 -55 -3 -95l-32 -32q0 46 3 125q-139 -8 -211 -8zM34 17l32 32q36 -4 77 -7t68.5 -4t78 0t68 1.5t79 3.5t71.5 3l-32 -32q-11 -1 -72 -3.5t-78.5 -3t-68 -1.5t-78.5 0
t-68.5 3.5t-76.5 7.5z" />
    <glyph glyph-name="uni00B2" unicode="&#xb2;" horiz-adv-x="307" 
d="M16 522q-3 18 2.5 34t13.5 25.5t25 26.5l32 32q65 50 114 34.5t47 -71t-53 -121.5l-32 -32q-20 -17 -59 -46l-56 -41q-25 -32 -8 -48q10 -8 59 -8t111.5 4t71.5 4l-32 -32q-9 0 -71.5 -4.5t-112 -4.5t-58.5 9q-5 5 -6.5 11.5t0 11.5t6.5 13t8 12t9.5 11t7.5 8l32 32
q21 18 61 48l52 38q21 29 30.5 58.5t7 52.5t-15 40t-32.5 23.5t-47.5 -0.5t-57.5 -28q-22 -28 -17 -60z" />
    <glyph glyph-name="uni00B3" unicode="&#xb3;" horiz-adv-x="268" 
d="M201 326q13 32 10.5 62t-25.5 52t-59 24l32 32q32 4 46 10q15 50 5 82t-34 46.5t-59.5 8.5t-71.5 -32q-1 -1 -9 -27l-32 -32l4 12q2 7 2 8.5t2 4.5l2 4q0 1 4.5 6t8.5 10l32 32q31 27 64 39t58.5 8t43.5 -22t20 -50.5t-12 -77.5l-32 -32l-6 -6q38 -17 47.5 -60.5
t-16.5 -82.5l-32 -32q-108 -93 -167 37l32 32q52 -114 142 -56z" />
    <glyph glyph-name="acute" unicode="&#xb4;" horiz-adv-x="199" 
d="M66 566q2 19 14.5 37.5t34 41t29.5 32.5l32 32q-7 -9 -28.5 -31.5t-34 -41t-15.5 -38.5z" />
    <glyph glyph-name="uni00B5" unicode="&#xb5;" horiz-adv-x="496" 
d="M441 466l32 32q-5 -58 -34.5 -160t-35.5 -131.5t-14 -86.5t-13 -83l-32 -32q3 17 6 37l6 45l6 38l-22 -22l-10 -12l-32 -32q-34 -25 -66 -40t-65 -20t-60.5 10t-44.5 52q-14 -49 -20.5 -75t-13 -67.5t-6.5 -78.5l-32 -32q0 34 6 73t10.5 59t19.5 73l17 64l33 123l38 144
q18 65 32 123l32 32q-8 -36 -97 -368q13 -51 39.5 -76t60.5 -24t68 14.5t71 38.5l14 14l29 43l2 2l6 31q6 29 35 131t35 161z" />
    <glyph glyph-name="paragraph" unicode="&#xb6;" horiz-adv-x="495" 
d="M165 309l23 -8v7v24zM109 602q9 8 18 14q-31 -10 -53 -23q-39 -75 -44.5 -126t19 -84.5t80.5 -58.5q-47 30 -69.5 65t-19 80.5t36.5 100.5zM195 -142q4 28 4.5 63.5t-0.5 54t-4.5 67t-3.5 57.5q-3 38 -3 159q-60 17 -97.5 35t-63 43t-30 57.5t7.5 77t44 103.5l32 32
q25 24 77.5 41t108.5 22.5t113.5 8.5t92.5 -2l-32 -32q-25 2 -56 2q-18 -221 -11 -402q3 -60 15 -188.5t13 -196.5l-32 -32q-2 67 -14 196q-12 124 -14 189q-7 197 13 429l5 5q-64 -1 -122 -9q-1 -40 -10 -141t-8 -157q1 -15 1 -91t2 -117q1 -9 4.5 -57t4 -67t0 -54
t-4.5 -64zM195 602q-54 7 -95 -16q-22 -41 -26.5 -77t8.5 -66t39 -55t67 -48q1 46 9 136.5t9 136.5z" />
    <glyph glyph-name="periodcentered" unicode="&#xb7;" horiz-adv-x="171" 
d="M62 305l32 32q4 1 8 3l6 6q6 4 12 7.5t7 4.5t4 0.5t3.5 -2t5 -7t8.5 -11.5l-32 -32l-9 -4q-4 -1 -7.5 -2.5t-4.5 -2.5l-8 -8l-10 21q-8 -3 -15 -5z" />
    <glyph glyph-name="cedilla" unicode="&#xb8;" horiz-adv-x="244" 
d="M149 -22l32 32q-4 -7 -19 -28l-26 -38q-11 -16 -11 -17q1 -4 14 -3t29 3.5t31 0.5t20 -13t-3 -36q-1 -4 -4 -9l-8 -10q-5 -5 -7 -8l-32 -32q-30 -21 -52.5 -25.5t-57.5 5.5l32 32q30 -9 50.5 -6.5t43.5 16.5q2 2 3 5q8 23 2 35.5t-20 13t-30.5 -0.5t-29 -3.5t-13.5 3.5
l11 17l26 38q14 20 19 28z" />
    <glyph glyph-name="uni00B9" unicode="&#xb9;" horiz-adv-x="203" 
d="M15 570l32 32q51 -11 80 1q1 2 1.5 4.5t2.5 8t4 12.5l32 32q11 -32 12.5 -73.5t-3.5 -76.5l-10 -79q-5 -45 -5 -75l-32 -32q0 28 4.5 69.5t9 72.5t5 73t-7.5 69l-25 -25q-23 -17 -48 -19t-52 6z" />
    <glyph glyph-name="ordmasculine" unicode="&#xba;" horiz-adv-x="316" 
d="M231 469q21 31 27 67.5t-2.5 67t-27.5 54.5t-48 31t-63 -3l-2 -2l-10 -5q-13 -25 -23 -48.5t-17 -54t-6 -54t15.5 -43.5t42.5 -28q37 -9 62 -5t52 23zM216 449q-33 -27 -61 -34t-70 4q-27 7 -41.5 24.5t-16 40.5t2.5 47.5t14.5 52t20 47t20.5 38.5l3 3q-4 -3 -8 -5l32 32
q43 26 80 26t61 -26.5t35 -61.5t1 -78.5t-41 -77.5z" />
    <glyph glyph-name="guillemotright" unicode="&#xbb;" horiz-adv-x="450" 
d="M52 350l32 32l22 -11l35 -18q17 -9 35.5 -20t30 -20t12.5 -15q3 -3 1 -10t-2 -9.5t-4 -8.5t-5 -8t-5.5 -8t-6.5 -8l-32 -32l-29 -24q-1 -1 -17 -24l-32 -32q3 5 7 10.5t5 7t2.5 4t3.5 4t4 4t7 8t11 11.5l32 32l17 14q14 19 11 37q-1 5 -13 14.5t-30 19.5l-36 20l-34 18
q-18 10 -22 12zM269 358l32 32l23 -10l27 -10q12 -4 26.5 -10.5t24 -13t17.5 -16t8 -20.5t-5 -26l-42 -44l-61 -64l-32 -32l39 42l22 22l23 25l19 19q4 15 4.5 25.5t-8 20t-17.5 16t-23.5 13t-27.5 11.5l-26 10q-15 5 -23 10z" />
    <glyph glyph-name="onequarter" unicode="&#xbc;" horiz-adv-x="760" 
d="M657 364l-39 -44l-53 -61l-47 -57q-26 -31 -38.5 -50.5t-10.5 -24.5q10 -18 177 0q0 76 9 182q4 47 2 55zM680 102q1 -36 4 -70l-32 -32q-5 46 -6 98q-199 -23 -209 -3q-5 8 39 63t101.5 120t62.5 72l16 16q-2 2 -5 -0.5t-6 -8t-5 -7.5l16 16l16 16q2 2 5.5 7.5t6.5 8
t6 0.5q2 -2 -3 -57q-10 -120 -8 -210q54 6 58 6l-32 -32q-7 -1 -25 -3zM62 570l32 32q62 -2 104 17l21 21q7 -46 -3.5 -149.5t0.5 -149.5l-32 -32q-11 45 -1 148t4 149l-18 -18q-43 -21 -107 -18zM604 636l32 32q-31 -51 -107.5 -159t-111.5 -169q-22 -39 -81.5 -154
t-98.5 -176l-32 -32q38 60 97.5 175.5t82.5 154.5q34 61 111 169t108 159z" />
    <glyph glyph-name="onehalf" unicode="&#xbd;" horiz-adv-x="751" 
d="M523 115q18 17 54 46.5t53 44.5q24 33 34 61.5t7 48t-16 32t-33.5 15.5t-47 -4.5t-54.5 -25.5q-2 -4 -2.5 -5.5t-1.5 -4t-0.5 -4t0 -7.5t-1.5 -13l-32 -32q0 6 0.5 12.5t0.5 7.5t1 4.5t1.5 4t3 6.5t5.5 12l32 32q31 26 62 38.5t55 12t40 -12.5t20.5 -33t-7.5 -53t-41 -69
l-32 -32l-34 -31q-18 -16 -42 -35.5t-35 -29.5q-53 -65 -53 -66q2 -7 24.5 -9t57 1t69.5 7l69 8q35 4 49 4l-32 -32q-15 -1 -50 -5l-70 -8q-34 -4 -68.5 -6.5t-56.5 -1t-24 9.5l14 18l31 39q17 21 19 23zM51 569l32 32q33 -1 55 4t45 22q3 3 7 8.5t7.5 9.5t7.5 3q4 0 4 -4
t-1.5 -10.5t-1.5 -9.5q-1 -40 -11 -147t-8 -167l-32 -32q-3 59 7.5 166.5t11.5 147.5q0 2 1.5 8.5t1 10.5t-3.5 5q-5 0 -8.5 -3.5t-7 -9.5t-6.5 -8q-23 -18 -45.5 -23t-54.5 -3zM546 641l32 32q-20 -67 -64.5 -148t-87.5 -143l-102 -144q-59 -83 -90 -132l-34 -58
q-25 -43 -41 -66l-32 -32q16 22 40.5 65.5t34.5 58.5q30 48 90 132l102 144q43 61 87 142t65 149z" />
    <glyph glyph-name="threequarters" unicode="&#xbe;" horiz-adv-x="760" 
d="M242 329q36 60 4 97.5t-105 22.5l32 32q31 9 63 29q22 33 18 76q-4 35 -24 50t-48 10.5t-56.5 -16t-53.5 -29.5l-11 -20l-32 -32l17 31l32 32q20 19 52 36.5t66 27.5t60 -3.5t30 -54.5q3 -31 -6 -53.5t-32 -46.5l-32 -32l-1 -1q57 -2 73 -42.5t-24 -96.5l-32 -32
q-24 -21 -50.5 -33t-52.5 -13.5t-49 13.5t-36 47l32 32q16 -37 45 -50.5t59.5 -7t61.5 26.5zM612 636l20 20l12 12q-38 -72 -120 -195t-107 -163q-16 -26 -42 -80.5t-42 -80.5q-12 -20 -48 -67.5t-51 -77.5l-32 -32q14 29 50.5 77t48.5 68q15 25 41.5 80t42.5 81
q24 40 106 163t121 195zM643 -9q1 48 -1 117q-180 -11 -187 14q-2 6 2.5 12t15.5 12.5t14 9.5v-2q7 -21 154 -15q-5 137 -4 189q-29 -39 -96 -119l-32 -32l-19 -18l24 24l3 4q-3 -3 -10 -7l-11 -8q-4 -2 -7 -6.5t-2 -9.5l3 3l24 24l7 7q-2 -2 -4 -3q82 97 121 154l32 32
q-1 -42 5 -232q25 1 62 4l-32 -32l-30 -3q2 -48 0 -87z" />
    <glyph glyph-name="questiondown" unicode="&#xbf;" horiz-adv-x="490" 
d="M282 294l32 32q4 -35 -1.5 -56.5t-26.5 -49.5l-32 -32l-45 -41q-33 -41 -48 -87t-12 -84.5t22 -69.5t49 -47t73 -12t91 31q11 18 27 53t24 50l32 32q-3 -6 -25.5 -54.5t-41.5 -71.5l-32 -32q-51 -33 -98 -39.5t-79 9.5t-52 48.5t-22.5 73t15 89t55.5 91.5l32 32l41 37
q17 24 21 44.5t1 53.5zM308 466q7 -6 7 -16t-6.5 -16.5t-16.5 -6.5t-16.5 6.5t-6.5 16.5t6.5 16.5t16.5 6.5t16 -7z" />
    <glyph glyph-name="Agrave" unicode="&#xc0;" horiz-adv-x="593" 
d="M298 749q-15 27 -46 63l32 32q32 -35 46 -63zM130 244l32 32q39 -2 130 -2.5t139 -4.5q-4 10 -7 19q-27 69 -62 204l-42 156l-26 -54l-25 -53q-85 -162 -139 -297zM130 244q-38 -95 -63 -181l-32 -32q58 205 202 478q9 17 23 49t27 57.5t29 45.5l32 32q11 -34 46 -168
t62 -205q15 -38 57 -119.5t57 -127.5l-32 -32q-10 31 -26 63l-36 74l-32 61l-6 -6q-58 7 -167.5 8t-140.5 3z" />
    <glyph glyph-name="Aacute" unicode="&#xc1;" horiz-adv-x="603" 
d="M432 277q-8 28 -26 103q-18 73 -30 114q-40 134 -63 148q-3 1 -7 2q-19 -47 -61 -175.5t-75 -195.5q178 14 262 4zM221 734q48 60 70 82l32 32q-22 -22 -70 -82zM54 39q-3 29 8.5 60.5t39.5 79.5l32 55l3 7l-27 -2l32 32l10 1q26 59 67 184.5t69 187.5l32 32q3 0 8.5 0.5
t9.5 0t7 -2.5q23 -14 63 -148q12 -41 34 -126q21 -87 34 -131l16 -4l-11 -11q39 -121 99 -197l-32 -32q-64 80 -105 212q-42 9 -96.5 11t-93.5 0.5t-100 -6.5l-13 -22l-14 -26l-12 -23q-9 -16 -13 -26t-8.5 -24t-6 -26t-0.5 -24z" />
    <glyph glyph-name="Acircumflex" unicode="&#xc2;" horiz-adv-x="587" 
d="M297 859q-48 -69 -69 -110l-32 -32q20 39 81 126l3 3l12 12q-3 -1 -12 -12l12 12l17 17q2 2 5.5 6.5t7 7t6.5 2.5q8 0 20 -13.5t25 -36.5t23 -43l22 -44q11 -23 13 -28l-32 -32q-3 4 -13.5 26.5t-21.5 42.5l-22 43q-13 23 -25 37t-20 16zM460 256q-3 9 -8 28l-32 110
q-13 41 -35.5 103.5t-46 101.5t-47.5 56q-32 -50 -56.5 -114.5t-48 -142t-41.5 -121.5l-12 -29l25 25q47 -7 95 -3.5t110 1.5t97 -15zM460 206q-23 19 -67.5 26.5t-89.5 6t-93.5 -1.5t-80.5 3q-1 -4 -13 -32l-16 -35l-14 -31q-9 -23 -12 -36l-9 -32q-5 -19 -7 -36l-32 -32
q4 37 17 75t38 93l32 71q18 44 45 134t56 159t71 121l32 32q32 -17 64.5 -81.5t52.5 -127t45 -148.5t32 -107q6 -17 26.5 -63.5t26.5 -73.5l-32 -32q-7 27 -27 73t-26 64q-4 9 -8 22z" />
    <glyph glyph-name="Atilde" unicode="&#xc3;" horiz-adv-x="592" 
d="M427 272l-19 72l-22 86q-11 38 -23 72q-1 1 -9 25t-12 33l-14 26q-9 18 -19 26.5t-22 10.5q-23 -39 -40.5 -84.5t-36.5 -105.5t-30 -90l-28 -72q104 18 275 1zM432 255l-17 -17q-60 7 -133 9t-142 -5q-51 -122 -68 -187l-32 -32q4 18 10 37l12 35q5 15 14 38t14 33l15 38
q11 27 14 35q-7 -2 -14 -3l22 22l21 53q10 27 33 99.5t43.5 121t50.5 92.5l32 32q11 1 20 -2.5t17 -12.5t14 -17.5t12 -22.5t9.5 -23t8.5 -24t7 -20q19 -49 42.5 -141.5t31.5 -121.5q8 -26 21 -56.5t24 -52.5l29 -56q18 -34 26 -51l-32 -32l-27 51l-28 56q-11 21 -24 51.5
t-21 57.5zM160 713q-7 25 -3.5 36t20.5 32l32 32q28 6 59 -5l62 -22q30 -11 57 -5q14 3 36 18.5t27 18.5l-32 -32q-6 -3 -28 -18.5t-35 -18.5q-33 -7 -85.5 14.5t-79.5 19.5q-5 -15 2 -38z" />
    <glyph glyph-name="Adieresis" unicode="&#xc4;" horiz-adv-x="606" 
d="M468 249l-52 123q-6 13 -43.5 113t-63.5 150l-23 -69q-14 -48 -25 -76l-77 -186q-11 -25 -28 -59q30 1 77 4.5t80.5 5.5t76 1t78.5 -7zM452 213q-46 10 -93.5 11t-123.5 -4.5t-95 -6.5q-52 -99 -64 -157l-32 -32q4 19 9.5 37.5t16.5 42.5l16 34q4 9 20 40.5t18 34.5h-19
l32 32h1h2l12 27q61 145 77 186q8 23 30 92.5t39 105.5l32 32q23 -40 42.5 -87t41 -106.5t34.5 -90.5l43 -102l53 -128q22 -53 39 -104l-32 -32q-27 77 -77 197zM400 801q7 -6 7 -16t-6.5 -16.5t-16.5 -6.5t-16.5 6.5t-6.5 16.5t6.5 16.5t16.5 6.5t16 -7zM248 812
q7 -6 7 -16t-6.5 -16.5t-16.5 -6.5t-16.5 6.5t-6.5 16.5t6.5 16.5t16.5 6.5t16 -7z" />
    <glyph glyph-name="Aring" unicode="&#xc5;" horiz-adv-x="590" 
d="M361 729q12 34 -4.5 57t-48.5 22l-9 -9q-7 0 -20 2l-10 -4q-19 -36 -8.5 -58t38.5 -22t62 12zM315 686l8 8l-6 -2zM141 234l32 32q3 0 29.5 2t35 3t34 2.5t38.5 1.5t36 0.5t38.5 0t34.5 -2t34 -3.5l-17 63q-13 51 -19.5 73t-21 67t-26 70.5t-28.5 56t-35 51.5
q-19 -63 -44 -127t-64 -154l-54 -125q-14 -35 -37.5 -101t-34.5 -93l-32 -32l34 93q23 66 38 101q15 37 47 110l51 118q18 45 40.5 109t36.5 120l19 19q-33 -9 -55.5 -1t-26 31.5t23.5 64.5l32 32q7 5 13 10.5t6.5 6t5 2t7.5 -0.5q30 13 55 2.5t30 -35.5t-13 -60l-32 -32
q-13 -8 -26 -13q34 -32 63 -93t45 -113t36 -130q21 -78 30 -108q8 -26 34 -85q25 -59 33 -93l-32 -32q-9 33 -34 92.5t-33 85.5l-3 8q-14 4 -29.5 7t-36 5t-35.5 3t-40.5 0.5t-37.5 -0.5t-41 -2l-36 -3q-7 0 -37 -2z" />
    <glyph glyph-name="AE" unicode="&#xc6;" horiz-adv-x="931" 
d="M467 253l-26 -26q-61 7 -150 9.5t-156 -1.5q-46 -94 -60 -161l-32 -32q15 72 75 192l1 1q46 90 60 124l112 272l32 32q30 12 66 14.5t90.5 -0.5t68.5 -3q140 0 332 8l-32 -32q-192 -8 -332 -8h-15q4 -27 6 -55.5t1.5 -60.5t-1 -53.5t-3.5 -60.5l-3 -55q44 13 180 22
t185 3l-32 -32q-42 5 -155 -1.5t-179 -17.5v-200q0 -5 -2 -23.5t-3 -29.5t2 -22q7 -12 22 -16q19 -4 96.5 8t84.5 12q31 2 65.5 2t77 -1t65.5 -1l-32 -32q-23 0 -65.5 1t-77 1t-65.5 -2q-7 -1 -85 -13t-96 -7q-16 3 -22 16q-3 11 -2.5 22t3 29t2.5 24q0 19 -0.5 72t-0.5 82z
M469 324h-1l1 1q1 15 3.5 59.5t3 65.5t0.5 56.5t-3 65t-8 59.5l12 12q-5 0 -23 1t-25 1.5t-23 0.5h-26q-9 0 -22 -1t-24 -2.5t-21 -4.5l-102 -247q-14 -33 -60 -125q64 5 157 3t159 -9q1 32 2 60v4z" />
    <glyph glyph-name="Ccedilla" unicode="&#xc7;" horiz-adv-x="611" 
d="M555 513q4 26 -16.5 51t-55 41t-75 28.5t-75 14t-56.5 -2.5q-32 -10 -80 -53q-65 -81 -100 -156t-24 -155q10 -69 62 -126t125.5 -82t140.5 -7q43 12 89 51q42 63 48 114l32 32q-4 -33 -16.5 -59t-37.5 -63l-32 -32l-36 -33q-12 -10 -34.5 -23t-44.5 -19q-5 -2 -10 -3
q-3 -5 -22.5 -35.5t-31.5 -46.5l-15 -15q13 1 25 0h23q12 -1 21.5 -3.5t17 -6t12 -10.5t5 -16t-3 -22.5t-12.5 -30.5l-32 -32q-29 -17 -57 -22t-70 -5l32 32q68 0 104 15q5 15 5.5 26t-2 18t-10.5 12t-15 7.5t-21 4t-22 1.5h-25h-10l26 26q10 13 27.5 42t28.5 44l16 16
q-66 -12 -135.5 14.5t-118.5 82.5t-58 122q-6 44 2.5 88.5t31.5 87.5t45.5 76t55.5 73l32 32q6 5 22.5 20t25.5 22t24 16t29 13q22 5 57 3.5t75.5 -14t74.5 -29t55 -41.5t16 -51z" />
    <glyph glyph-name="Egrave" unicode="&#xc8;" horiz-adv-x="607" 
d="M324 725q-11 33 -39 68l32 32q29 -35 39 -68zM521 631q-22 1 -63 5t-74.5 6t-62.5 3q-24 0 -65 -1.5t-76 -1.5t-64 4q-7 -69 12 -295l9 9q2 2 6 5.5t7 5.5t6 3h16h28h20q138 5 280 5l-32 -32q-143 0 -280 -5h-29h-31q11 -131 11 -163l-3 -40q-3 -40 0.5 -63t18.5 -30
q17 -8 106 -9.5t194.5 0t128.5 0.5l-32 -32q-23 1 -129 -0.5t-195 0t-105 9.5q-15 7 -19 30t-0.5 62.5t3.5 40.5q0 29 -7 110l-12 153q-6 71 -7 146.5t10 93.5l32 32q34 -6 72 -7t86 1t72 1q30 0 63 -2.5t74.5 -6t62.5 -5.5z" />
    <glyph glyph-name="Eacute" unicode="&#xc9;" horiz-adv-x="581" 
d="M246 730q19 35 52 72l32 32q-32 -36 -52 -72zM526 639q-43 0 -149.5 -5.5t-163.5 -3.5q-8 0 -36.5 6t-40.5 7q-4 -82 4 -258q33 -1 100 -7.5t101.5 -7t99 1.5t92.5 2l-32 -32q-29 0 -93.5 -2.5t-98.5 -1.5q-33 0 -92.5 6t-74.5 7q4 -97 3 -161q0 -5 -2 -30t-2.5 -43.5
t3 -38t12.5 -24.5q18 -9 94 -10.5t179 2t113 3.5l-32 -32q-10 0 -113 -3.5t-179 -2.5t-94 11q-9 5 -13 24t-3 38t3 44t2 30q1 68 -5 195h-14l13 13q-8 172 -3 259l5 5l9 9q-3 -2 -9 -9l9 9l18 18q2 2 6 6.5t7.5 7t6.5 3.5q12 3 47.5 -4.5t41.5 -7.5q58 -2 164 3.5t149 5.5z
" />
    <glyph glyph-name="Ecircumflex" unicode="&#xca;" horiz-adv-x="576" 
d="M289 825q-29 -41 -45 -79l-32 -32q23 55 72 113l32 32q13 -4 26 -13.5t25.5 -23.5t20.5 -24l21 -30q13 -18 17 -25l-32 -32q-3 3 -21 29t-26.5 36.5t-25 26t-32.5 22.5zM521 639q-60 4 -95 2.5t-96 -4.5t-95 -3q-21 0 -61 4t-58 5q-12 -124 -1 -283q31 9 101.5 11
t174 -0.5t106.5 -2.5l-32 -32q-13 0 -92 1.5t-146.5 1t-109.5 -4.5q5 -63 19 -191q1 -5 1 -24t1.5 -34.5t5.5 -21.5q8 -10 45 -16.5t92 -8t102.5 -1t99 1.5t59.5 1l-32 -32q-8 0 -59.5 -1.5t-99.5 -1.5t-102.5 1.5t-91.5 7.5t-45 17q-5 6 -6.5 21.5t-1.5 34.5v24
q-16 146 -21 217q-2 -1 -3 -1l3 3q-13 176 4 312l32 32q27 3 78 -2.5t70 -5.5q35 0 95.5 3.5t96 4.5t94.5 -3z" />
    <glyph glyph-name="Edieresis" unicode="&#xcb;" horiz-adv-x="582" 
d="M526 641q-37 9 -80 10t-102.5 -3t-80.5 -4q-41 -1 -131 11q-13 -77 -7 -284q27 5 59 5.5t55.5 -1t61 -5t55.5 -4.5q26 -1 55 -1t65 0.5t55 0.5l-32 -32q-20 0 -55.5 -1t-65 -1t-54.5 2q-18 1 -65.5 5t-66.5 4.5t-66 -0.5q1 -27 3 -72.5t2 -60.5q2 -72 2 -122
q0 -2 -1 -7.5t-1 -9t2 -6.5q5 -4 27.5 -7.5t58 -5.5t74 -3t83.5 -1h78h66h39l-32 -32q-6 0 -39.5 -0.5t-65.5 -0.5h-78q-45 0 -84 1l-74 4q-35 1 -57.5 4.5t-27.5 8.5q-3 2 -3 6t1.5 9t1.5 8q0 50 -2 122q-1 14 -3 69t-3 91q-13 -2 -24 -5l23 23q-6 251 17 302l32 32
q11 -1 37.5 -4.5t40.5 -5t36 -3t40 -1.5q22 1 81.5 5t102.5 2.5t79 -10.5zM259 788q7 -6 7 -16t-6.5 -16.5t-16.5 -6.5t-16.5 6.5t-6.5 16.5t6.5 16.5t16.5 6.5t16 -7zM428 787q7 -6 7 -16t-6.5 -16.5t-16.5 -6.5t-16.5 6.5t-6.5 16.5t6.5 16.5t16.5 6.5t16 -7z" />
    <glyph glyph-name="Igrave" unicode="&#xcc;" horiz-adv-x="187" 
d="M123 728q-12 18 -66 93l32 32q55 -75 66 -93zM102 666l32 32q0 -30 6.5 -86t7.5 -75q1 -10 4 -53t3.5 -57.5t3 -54t3 -58.5t2 -54t1 -58t-0.5 -53.5t-1.5 -57.5t-3.5 -54l-32 -32q2 30 3.5 63.5t2 58.5t-1 66.5t-1.5 59.5t-3 67t-3.5 59t-4 66t-3.5 60q-1 18 -7.5 74
t-6.5 87z" />
    <glyph glyph-name="Iacute" unicode="&#xcd;" horiz-adv-x="164" 
d="M84 -1q6 43 10.5 86.5t7.5 96.5l4 84q1 31 2 95.5t1 84.5v97v87l32 32q0 -11 0.5 -87t0 -96t-1 -84.5t-2.5 -96.5t-4.5 -84.5t-7 -95.5t-10.5 -87zM49 720q13 31 41 70l32 32q-27 -39 -41 -70z" />
    <glyph glyph-name="Icircumflex" unicode="&#xce;" horiz-adv-x="246" 
d="M63 817q-30 -42 -46 -69l-32 -32q14 25 63 93l32 32q3 1 7.5 4t8.5 5t7 1q9 -1 27.5 -16.5t33.5 -32.5l36 -38q21 -23 23 -26l-32 -32q-3 2 -23 25l-36 39q-16 16 -34.5 32t-26.5 17q-4 0 -8 -2zM105 653l32 32q16 -119 23.5 -209t10 -205.5t-8.5 -211.5l-32 -32
q10 96 7.5 211t-10 205.5t-22.5 209.5z" />
    <glyph glyph-name="Idieresis" unicode="&#xcf;" horiz-adv-x="233" 
d="M93 9q-5 27 -5.5 60.5t1 59.5t4 64t3.5 60q1 32 1 125t4.5 157t16.5 124l32 32q-12 -60 -16 -123.5t-4.5 -156.5t-1.5 -126q0 -22 -2.5 -59.5t-4 -63.5t-1 -59.5t4.5 -61.5zM58 799q7 -6 7 -16t-6.5 -16.5t-16.5 -6.5t-16.5 6.5t-6.5 16.5t6.5 16.5t16.5 6.5t16 -7z
M203 806q7 -6 7 -16t-6.5 -16.5t-16.5 -6.5t-16.5 6.5t-6.5 16.5t6.5 16.5t16.5 6.5t16 -7z" />
    <glyph glyph-name="Eth" unicode="&#xd0;" horiz-adv-x="633" 
d="M501 113q29 46 49 102t25.5 117t-5.5 115t-47.5 97.5t-96.5 63.5q-61 20 -148.5 20.5t-154.5 -8.5q4 -72 -1 -227q46 3 126 2.5t124 0.5l-32 -32q-35 -2 -108.5 -1t-110.5 -1q-3 -96 -1 -158q1 -20 6 -65t5 -69q0 -2 -1.5 -8.5t-1.5 -9t3 -6.5q8 -5 94.5 6.5t124.5 18.5
l40 7q28 5 41 7.5t33 9.5t37 18zM85 653l32 32l4 -36q75 7 116.5 10t108 0t112.5 -19q63 -20 100.5 -66.5t46.5 -104t1.5 -120.5t-31 -121t-55.5 -102l-32 -32q-20 -15 -43.5 -25t-35 -13.5t-47.5 -9.5t-44 -7q-38 -7 -124.5 -19t-94.5 -6q-3 3 -3 6t1.5 9t1.5 9
q-1 24 -5.5 68.5t-5.5 65.5q-3 66 1 188q-69 -5 -122 -21l32 32q41 13 91 19q5 146 -2 226l-22 -2l21 21z" />
    <glyph glyph-name="Ntilde" unicode="&#xd1;" horiz-adv-x="593" 
d="M227 792q-15 -22 -15 -47l-32 -32q0 7 1 14.5t2.5 12t5.5 11.5t6 9.5t8.5 11.5t8.5 12l32 32q17 12 37.5 12.5t39 -7t42.5 -15t47.5 -11.5t54 4.5t60.5 30.5l-32 -32q-29 -21 -57.5 -30t-50.5 -6t-45 9t-41 14t-37.5 10t-34.5 -3zM43 28q18 242 22 360q0 25 -1.5 133.5
t4.5 133.5l32 32q14 -12 28 -27.5t23 -27t23 -32.5l21 -29l22 -34l20 -31q28 -42 82 -132.5t100 -159t95 -123.5q7 37 9 89t0.5 92.5t0.5 83.5q1 43 6.5 126t7.5 123l32 32q-1 -40 -6.5 -123t-7.5 -126q0 -14 1 -94.5t-4.5 -132.5t-22.5 -88l-32 -32q-53 56 -101.5 126
t-106.5 168t-85 139l-19 30l-23 34l-19 28l-24.5 32.5t-23.5 27.5q-1 -34 0 -103q2 -68 1 -103q-3 -121 -22 -360z" />
    <glyph glyph-name="Ograve" unicode="&#xd2;" horiz-adv-x="692" 
d="M588 101q33 60 43.5 143.5t-3 164.5t-57 150.5t-109.5 98.5q-35 15 -56 18l-21 -21q-15 10 -33 15q-7 -3 -14 -7l8 8q-76 15 -200 -86q-47 -61 -70 -129.5t-22 -131.5t21.5 -121t56 -102t86.5 -71t108.5 -31.5t126 21t135.5 81.5zM584 94q-70 -66 -142.5 -98.5
t-133.5 -30.5t-114.5 28t-91.5 72t-59 106.5t-21.5 126.5t26 137.5t79.5 134.5l32 32q28 23 49 38.5t53.5 35.5t64.5 26.5t59 -0.5q18 8 36.5 8t34.5 -5q14 -5 38 -15q68 -29 112 -100q43 -71 56 -153.5t1.5 -167t-47.5 -143.5zM369 745q-14 28 -42 74l32 32q28 -46 42 -74z
" />
    <glyph glyph-name="Oacute" unicode="&#xd3;" horiz-adv-x="670" 
d="M529 84q-65 -61 -143.5 -81.5t-148 -2.5t-123.5 79t-71 154q-32 170 112 348l8 8q13 13 21 20q-140 -175 -109 -344q17 -88 67 -148t115.5 -80.5t140.5 -6t140 65.5q41 56 52 85q19 53 23.5 114t-7 119t-43 110t-78.5 85q-47 32 -100.5 41t-107.5 -8l11 11q8 -1 16 -3
l31 31q94 19 182 -40q48 -32 79 -84q32 -52 43 -110.5t7 -119t-24 -114.5q-4 -12 -12.5 -27t-13.5 -22l-19 -26q-14 -20 -16 -22zM284 728q21 35 65 88l32 32q-43 -52 -65 -88zM335 681l1 1q-13 4 -26 4.5t-23 -1.5t-23 -9t-20 -11.5t-20 -16.5l-18 -17q-6 -5 -19 -18l-3 -4
q56 52 104 44l21 21q13 5 26 7z" />
    <glyph glyph-name="Ocircumflex" unicode="&#xd4;" horiz-adv-x="693" 
d="M582 138q-36 -32 -75.5 -58t-88 -46.5t-94.5 -24t-94 9.5q-61 19 -101 72t-54 120.5t-10.5 140t28 137.5t62.5 105l32 32q70 58 152 58l-32 -32q-74 0 -137 -47q-42 -55 -60.5 -140t-11 -168.5t50 -153t113.5 -92.5q78 -24 164.5 6.5t163.5 92.5q37 58 45 131.5
t-12 140.5t-69 122.5t-117 79.5q-49 17 -138 17l32 32q90 0 138 -17q70 -24 119.5 -81.5t68.5 -126.5t9 -144t-52 -134zM326 834q-32 -44 -48 -75l-32 -32q17 35 70 105l32 32q3 1 8.5 2.5t8 1.5t7.5 -1q23 -8 59.5 -50t65.5 -82l-32 -32l-36 45q-19 24 -46.5 52.5
t-42.5 34.5q-5 2 -14 -1z" />
    <glyph glyph-name="Otilde" unicode="&#xd5;" horiz-adv-x="698" 
d="M222 777l-6 -9l-32 -32l20 27l32 32q34 27 65.5 38t54 7.5t46 -10t41 -15.5t39 -8.5t40.5 10.5l-32 -32q-18 -11 -38.5 -11.5t-37.5 7.5t-39 15t-43 11.5t-50 -3t-60 -27.5zM351 664q-79 14 -157 -48q-56 -72 -81.5 -165t-11.5 -180q12 -73 57.5 -129.5t106.5 -84
t132.5 -23.5t132.5 44q21 30 52 102q2 4 5 13l14 33q5 11 13 32t12 35t9 34.5t6.5 36t1.5 34t-3 35.5q-13 63 -58 112.5t-101 76t-121 37.5l32 32q65 -11 121.5 -37t101.5 -75.5t57 -113.5q3 -16 3.5 -34.5t-1 -34.5t-6.5 -36t-9.5 -34t-12.5 -36l-12 -32l-14 -33
q-4 -8 -6 -13l-20 -46q-6 -14 -19.5 -37.5t-29.5 -40.5l-32 -32q-62 -46 -136 -53.5t-137 19t-111 84.5q-48 57 -60 133q-15 93 14 190q29 98 91 171l32 32q44 39 86 56t91 8z" />
    <glyph glyph-name="Odieresis" unicode="&#xd6;" horiz-adv-x="683" 
d="M482 45q-67 -36 -128 -43t-106.5 12t-82 57t-57.5 88.5t-29 109.5t-1.5 117.5t29.5 115.5t61 101l32 32q25 24 48 35t55 12l-32 -32q-47 -2 -83 -30q-34 -44 -54 -100t-25 -113.5t4 -114.5t30.5 -105.5t57 -85t80 -55t103.5 -12.5t124 40q41 49 70 104t41.5 114.5
t4.5 114t-45.5 104t-102.5 84.5q-100 52 -207 52l32 32q107 0 207 -52q70 -37 108 -90q37 -54 42.5 -112.5t-11.5 -121.5t-51.5 -120t-81.5 -106zM305 810q7 -6 7 -16t-6.5 -16.5t-16.5 -6.5t-16.5 6.5t-6.5 16.5t6.5 16.5t16.5 6.5t16 -7zM491 796q7 -6 7 -16t-6.5 -16.5
t-16.5 -6.5t-16.5 6.5t-6.5 16.5t6.5 16.5t16.5 6.5t16 -7z" />
    <glyph glyph-name="multiply" unicode="&#xd7;" horiz-adv-x="489" 
d="M63 419l32 32q32 -14 59 -40.5t59 -68t46 -57.5l22 -24q88 118 126 189l60 60q-18 -32 -42 -69t-41 -61l-49 -68l-45 -61l55 -61q19 -21 52 -51.5t61 -51.5l-32 -32q-28 20 -59 49t-51 50l-53 58q-65 -95 -99 -171l-60 -60q42 94 150 242l-27 30q-14 15 -46 57t-59 68
t-59 41z" />
    <glyph glyph-name="Oslash" unicode="&#xd8;" horiz-adv-x="687" 
d="M492 591q-64 -110 -209 -396q-17 -33 -66 -118q5 -3 9 -6q37 -21 116 -28q107 -9 201 65q62 72 81.5 157.5t-9.5 169t-106 143.5zM377 656q-51 16 -101.5 7t-94.5 -39q-81 -98 -92 -200q-8 -82 24.5 -186.5t94.5 -153.5q27 47 43 79q4 7 30.5 60.5t34 67t30.5 58.5l34 67
l32 58l36 66l34 58q-60 47 -104 59zM560 722l32 32l-77 -123l26 -21q82 -63 110 -152t1.5 -179t-99.5 -163l-32 -32q-99 -83 -211 -73q-79 6 -115 27q-14 -25 -25 -47l-32 -32q17 33 47 85q-44 31 -76.5 95.5t-45 131.5t-6.5 121q6 60 37 118.5t77 106.5l32 32
q44 34 96.5 45t105.5 -4q45 -10 101 -52z" />
    <glyph glyph-name="Ugrave" unicode="&#xd9;" horiz-adv-x="614" 
d="M109 675l32 32q-17 -44 -25 -92t-6 -100.5t6.5 -92.5t13.5 -99q8 -45 17.5 -84t24.5 -79t33.5 -69.5t45 -50.5t57 -27.5t71 4t86.5 40.5q94 138 94 602l32 32q0 -512 -113 -625l-32 -32q-48 -34 -90.5 -47t-74.5 -8t-59 25.5t-46.5 50t-35 70t-25.5 80.5t-17 86
q-10 58 -14.5 98.5t-6 93t6 100t25.5 92.5zM368 708q-13 17 -33 52l-26 45l32 32q7 -10 26.5 -44.5t32.5 -52.5z" />
    <glyph glyph-name="Uacute" unicode="&#xda;" horiz-adv-x="619" 
d="M300 764l-5 -7l-32 -32l16 20l32 32l56 49l-32 -32zM102 655l32 32q0 -8 -1 -27q-1 -43 -2 -68t-1 -76.5t2 -86.5t6.5 -85.5t12 -86t20.5 -76.5t29.5 -68.5t41 -49.5t53.5 -32q71 -22 155 35q24 34 41 73t27 88t14.5 80.5t10.5 89.5l3 23q1 16 8 65t9 82t0 66l32 32
q3 -32 1 -65.5t-9 -82t-9 -65.5q-1 -7 -2 -22q-7 -63 -11.5 -97t-16.5 -86t-32 -93t-50 -77l-32 -32q-96 -70 -171 -46q-30 9 -54 31.5t-41 50t-29.5 68t-20.5 76.5t-12.5 86.5t-6 85.5t-1.5 86t0.5 76.5t2.5 67.5q0 19 1 28z" />
    <glyph glyph-name="Ucircumflex" unicode="&#xdb;" horiz-adv-x="618" 
d="M321 819q-18 -25 -88 -101l-32 -32q5 6 20 22l23 24l18.5 21.5t20.5 25.5l18 25l32 32q3 2 7 6t7.5 6.5t7.5 2.5q12 0 36.5 -28t51 -64t33.5 -44l-32 -32q-7 7 -34 43.5t-51 64t-36 28.5h-2zM110 663l32 32q-19 -71 -27.5 -174t-1 -210.5t33.5 -170.5
q44 -105 133.5 -132.5t179.5 35.5q31 49 53 130.5t32 174t14 166t4 145.5l32 32q0 -75 -4 -152t-15 -173t-35.5 -178.5t-59.5 -128.5l-32 -32q-61 -52 -127 -59t-121 29.5t-86 110.5q-27 62 -34.5 170t1.5 210.5t28 174.5z" />
    <glyph glyph-name="Udieresis" unicode="&#xdc;" horiz-adv-x="620" 
d="M538 647l32 32q17 -66 23.5 -148.5t0.5 -168t-32 -164t-70 -127.5l-32 -32q-37 -31 -73.5 -48t-80 -15t-79.5 32q-32 26 -55.5 57.5t-37.5 70t-23 72t-12.5 80t-4.5 77.5t-1 80q0 12 -1 53t0 68t4 53l32 32q-3 -26 -3.5 -53t0 -67.5t0.5 -53.5q0 -49 1 -79.5t4.5 -77.5
t12.5 -80.5t23 -71.5t38 -70t55 -58q34 -27 73.5 -31t74 9.5t69.5 39.5q50 67 71.5 178.5t17 217.5t-26.5 193zM287 801q7 -6 7 -16t-6.5 -16.5t-16.5 -6.5t-16.5 6.5t-6.5 16.5t6.5 16.5t16.5 6.5t16 -7zM444 790q7 -6 7 -16t-6.5 -16.5t-16.5 -6.5t-16.5 6.5t-6.5 16.5
t6.5 16.5t16.5 6.5t16 -7z" />
    <glyph glyph-name="Yacute" unicode="&#xdd;" horiz-adv-x="634" 
d="M30 667l32 32q98 -102 202 -278q23 -39 47 -84q2 -2 4 -9l15 15l-4 -27q21 36 46 72l62 86l51 70q11 15 42.5 63.5t51.5 73.5l32 32q-19 -24 -51 -73t-43 -64l-53 -73q-42 -56 -67.5 -94t-48.5 -77l-3 -3l-15 -15q3 1 15 15l-15 -15l-5 -5q-8 -53 -8 -155.5t-1 -119.5
l-32 -32q0 13 0.5 119t8.5 160q-4 0 -6.5 4t-4.5 10.5t-3 9.5q-25 47 -47 84q-104 174 -202 278zM237 713q12 18 39.5 48t38.5 44l32 32q-10 -13 -37.5 -43.5t-40.5 -48.5z" />
    <glyph glyph-name="Thorn" unicode="&#xde;" horiz-adv-x="518" 
d="M447 297q21 32 13 83q-8 46 -35.5 78.5t-63 48.5t-83.5 22.5t-89 5.5t-87 -7q-15 -129 -20 -282q79 -22 187 -8t178 59zM96 683l32 32q-5 -16 -7.5 -35t-4.5 -42t-4 -36l-6 -47l2 2q38 6 73.5 8.5t79 2t80 -10t69 -26t54.5 -47.5q21 -30 28 -72q6 -34 0 -58
q-7 -23 -31 -48l-32 -32q-62 -45 -161.5 -63t-186.5 -4q-1 -54 -1 -114l-32 -32q0 81 2 152l-2 1l2 2q6 194 30 354q2 14 4 36q1 23 3.5 42t8.5 35z" />
    <glyph glyph-name="germandbls" unicode="&#xdf;" horiz-adv-x="491" 
d="M373 440q19 24 25 41q14 43 -4 125q-12 53 -47 76.5t-77 18.5t-85 -31q-28 -35 -38 -68q-16 -53 -18 -128.5t2.5 -168.5t2.5 -135q0 -17 -3.5 -49t-4.5 -48.5t2 -48.5l-32 -32q-3 31 -2.5 48t4 49t4.5 49q1 41 -3 134t-2 169t18 129q11 39 59 93l32 32q44 30 89 37.5
t82 -16t49 -78.5q19 -81 4 -125q-2 -8 -8.5 -18t-9.5 -15l-14 -17q-11 -13 -12 -14l-32 -32l-21 -15zM333 402q53 2 81 -17q33 -21 46 -61t7.5 -83t-21 -83.5t-37.5 -67.5l-32 -32q-34 -30 -57.5 -44t-56.5 -20l32 32q47 9 91 45q27 40 41.5 93t5 107.5t-50.5 81.5
q-47 30 -167 6l32 32q52 11 86 11z" />
    <glyph glyph-name="agrave" unicode="&#xe0;" horiz-adv-x="512" 
d="M368 162q-14 -47 -43 -89l-32 -32q-25 -20 -56.5 -32t-61.5 -14t-58.5 3t-48 20.5t-29.5 37.5t-3.5 54.5t30.5 70.5l32 32q27 23 61.5 36t63 16.5t64 13t61.5 25.5q25 35 26 66.5t-18.5 51.5t-49.5 31t-69.5 8t-76.5 -20q-25 -12 -57 -40l-14 -27l-32 -32l16 32l32 32
q3 3 13 12l14 13l14 12q9 8 16 12l14 9q9 6 16 9q34 16 69 19.5t64 -3t49.5 -22.5t28.5 -38.5t-2 -53t-40 -63.5l-32 -32q-33 -23 -76.5 -33.5t-87.5 -19.5t-76 -29q-25 -48 -23.5 -83.5t26.5 -56t59.5 -28.5t76 -0.5t76.5 29.5q20 32 31 70.5t14 64.5t8 80l32 32
q6 -25 8.5 -62.5t5 -64.5t10 -56.5t26.5 -53.5t50 -42l-32 -32q-49 27 -66.5 67t-22.5 100zM241 527q-25 76 -76 162l32 32q52 -86 76 -162z" />
    <glyph glyph-name="aacute" unicode="&#xe1;" horiz-adv-x="504" 
d="M370 159q-23 -51 -64 -96l-32 -32q-29 -22 -60.5 -33t-58.5 -9.5t-51.5 11t-37.5 29.5t-17 43.5t9 55t43 63.5l32 32q42 24 124 42t116 33q14 37 1 85.5t-44 71t-69 18t-75.5 -20.5t-70.5 -42q-2 -2 -4.5 -5.5t-2.5 -4t-2 -2.5l-1 -3l-1 -3v-5t-1 -6.5t-2 -9.5l-32 -32
q1 6 2 13t1 7.5t1.5 4.5t2.5 5t5 7l9 13l32 32q24 23 54.5 42.5t66.5 31t67.5 10.5t58 -23t37.5 -66q17 -62 -12 -107l-32 -32q-41 -24 -126.5 -42t-123.5 -38q-24 -33 -29 -64t4.5 -53t31 -37.5t49.5 -20t61.5 3t63.5 28.5q69 88 80 221l32 32q1 -18 -1 -57.5t-1.5 -68
t6 -61t24 -55t48.5 -33.5l-32 -32q-25 8 -41 24t-24 38.5t-11 45t-3 51.5zM202 539q1 15 6 30t16 32l17 26q6 9 23.5 29.5t20.5 24.5l32 32q-2 -3 -19.5 -24t-23.5 -29l-18 -26q-11 -18 -16 -33t-6 -30z" />
    <glyph glyph-name="acircumflex" unicode="&#xe2;" horiz-adv-x="510" 
d="M231 690q-51 -78 -64 -122l-32 -32q4 14 10.5 29.5t17.5 34.5l17 28q5 9 20 32.5t18 27.5l32 32q3 0 8.5 1.5t8 1.5t6.5 -2q1 -1 31 -35l63 -74q33 -39 39 -47l-32 -32q-7 7 -40 46l-62 74q-30 35 -31 36q-4 2 -10 1zM379 291l-28 -28q-15 -7 -30.5 -9t-35.5 -2.5
t-31 -1.5q-43 -6 -79.5 -22.5t-80.5 -45.5q-54 -74 2 -112q48 -33 135 -18q55 10 97 38q37 59 49 145q2 32 2 56zM66 331q-1 34 7 55.5t31 47.5l32 32q55 52 120 55q50 3 85 -19t50.5 -58.5t20.5 -83.5q6 -45 -2 -93q-1 -6 -2 -19q-2 -44 -2 -80.5t19.5 -73.5t61.5 -70
l-32 -32q-45 34 -62.5 70.5t-19.5 81.5q-12 -23 -25 -40l-32 -32q-67 -55 -162 -57q-82 -1 -109 41q-30 45 37 118l32 32q51 34 88.5 52t83.5 24q8 1 39.5 2.5t47.5 6.5l6 11l2 2q-1 40 -10 73t-27 59.5t-49 40.5t-71 12q-56 -3 -100 -38q-28 -36 -26 -88z" />
    <glyph glyph-name="atilde" unicode="&#xe3;" horiz-adv-x="531" 
d="M127 219q-58 -74 -23 -128q30 -47 102 -46q74 1 144 56l9 16q-4 50 9 155l-3 -3q-128 23 -238 -50zM476 16q-104 -22 -116 92l-14 -14q-83 -83 -178 -81q-70 1 -98 47q-34 57 29 133q9 10 19 20l32 32q103 72 222 60q10 83 4 109q-8 32 -36.5 50t-63.5 22q-83 8 -146 -39
q-16 -20 -25 -43l-32 -32q10 27 39 61l32 32q38 33 76.5 45.5t87.5 7.5q36 -3 64 -21.5t36 -50.5q7 -27 -6 -136q-14 -110 -11 -160q5 -58 31.5 -86t85.5 -16zM88 555q0 7 -0.5 15t-0.5 9t1 5t2 4.5t5.5 7t9.5 12.5l32 32q27 25 54.5 32.5t49.5 2t51 -8.5t59 0q12 2 65 27
l-32 -32q-54 -25 -65 -27q-28 -4 -54.5 -1.5t-47 8t-45 2t-47.5 -18.5q-3 -3 -4 -4.5t-1.5 -4.5t0 -5t0.5 -9v-14z" />
    <glyph glyph-name="adieresis" unicode="&#xe4;" horiz-adv-x="537" 
d="M349 281q-33 -19 -67.5 -26.5t-58.5 -7t-57.5 -11t-66.5 -38.5q-16 -25 -19.5 -52.5t4.5 -51t30.5 -39t55.5 -17.5q93 -4 210 96q-1 22 1 84t1 96l-1 -1zM380 131q-136 -131 -242 -125q-47 2 -71 30t-21.5 66t27.5 73l32 32q39 37 75.5 54t61 17.5t60 6t67.5 21.5
q0 2 1 4l3 8l4 10l4 4q-2 38 -9 66.5t-21 54t-39 39.5t-60 16q-58 2 -105 -33q-26 -35 -36 -82l-32 -32q12 55 47 97l32 32q56 53 126 50q44 -1 72.5 -23.5t39.5 -57.5t16.5 -78.5t2.5 -87t-2.5 -84t1.5 -69.5q7 -51 31 -79.5t69 -11.5l-32 -32q-45 -18 -69.5 10.5
t-30.5 80.5q-2 10 -2 23zM187 660q7 -6 7 -16t-6.5 -16.5t-16.5 -6.5t-16.5 6.5t-6.5 16.5t6.5 16.5t16.5 6.5t16 -7zM330 643q7 -6 7 -16t-6.5 -16.5t-16.5 -6.5t-16.5 6.5t-6.5 16.5t6.5 16.5t16.5 6.5t16 -7z" />
    <glyph glyph-name="aring" unicode="&#xe5;" horiz-adv-x="546" 
d="M268 620q17 26 23.5 50t-4 41.5t-40.5 17.5l-29 -29l-7 2q-6 -25 -6 -47.5t16 -33.5t47 -1zM244 591q-34 -13 -51 -5t-20 29.5t3.5 46.5t19.5 46l32 32h1l16 16q43 11 63.5 -0.5t18 -35t-16 -50t-34.5 -47.5zM344 281q-30 -23 -65 -33t-62.5 -10t-64 -4.5t-63.5 -15.5
q-13 -24 -16 -54t3.5 -57t26.5 -48t50 -27q91 -18 209 65l1 2l14 14q3 23 13.5 74.5t16.5 94.5t4 77q-12 -22 -35 -46zM491 17q-75 -24 -101 -1q-23 20 -13 93l-2 -2l-32 -32q-128 -94 -222 -75q-46 9 -67 50t-14 87.5t36 75.5l32 32q29 14 65 19.5t64 5t63 8t65 27.5
q12 16 22 37l24 24q-5 69 -49.5 101t-145.5 16q-44 -7 -83 -37q-19 -27 -30 -56l-32 -32q13 33 39 69l32 32q52 47 106 56q66 11 109 0t61 -37.5t24 -65t-0.5 -81.5t-14 -88t-15.5 -83t-6 -68.5t16 -43.5q26 -23 101 1z" />
    <glyph glyph-name="ae" unicode="&#xe6;" horiz-adv-x="806" 
d="M486 428q-65 -85 -74 -187l27 27q35 -5 146 -1.5t165 18.5q-4 52 -28.5 93t-61 62t-83 19t-91.5 -31zM357 308q2 4 12 28l2 2q-8 45 -28 76t-52 46t-80.5 2.5t-106.5 -54.5q0 -2 -1 -4.5t-3 -8t-5 -11.5l-32 -32q2 6 5 13t3 8t2.5 4.5t3.5 4.5t6 6.5t11 11.5l32 32
q55 42 102 58t79.5 8t55.5 -33.5t34 -62.5t12 -82q24 55 65 99l32 32q48 36 99 40t89.5 -19.5t63.5 -69.5t25 -103l-32 -32q-33 -24 -147.5 -30.5t-192.5 -1.5q-5 -80 27.5 -137t97 -68.5t159.5 47.5l45 65l32 32q-29 -44 -61 -86l-32 -32q-52 -37 -98.5 -51.5t-81 -7.5
t-60.5 28.5t-41 55t-19 74.5q-22 -55 -56 -92l-32 -32q-4 -3 -21.5 -12t-23.5 -12.5t-21 -10t-24.5 -9t-23.5 -5t-26 -1.5q-56 2 -86.5 40.5t-27 89t35.5 88.5l32 32q25 21 60 31.5t64.5 12.5t66 9.5t61.5 23.5zM346 292q-25 -23 -60 -34t-65 -13t-67 -9.5t-62 -23.5
q-18 -29 -21 -63t8 -63.5t38 -50t66 -22.5q23 -1 48 7t38 14l43 23q37 53 53.5 125t8.5 138z" />
    <glyph glyph-name="ccedilla" unicode="&#xe7;" horiz-adv-x="428" 
d="M369 341q3 44 -22.5 81t-67.5 53.5t-85 4.5q-30 -9 -68 -37q-28 -39 -44.5 -92.5t-16 -109.5t15 -104.5t54 -80.5t96.5 -35h19l11 11l-5 -10q28 3 54 22q35 45 63 103l32 32q-34 -71 -80 -123l-32 -32q-29 -24 -52 -31q-21 -39 -44 -66q-2 -2 -7.5 -5.5t-8.5 -6.5t0 -5
q4 -2 25 3l42 10q21 5 41.5 3t25 -18.5t-9.5 -55.5l-32 -32q-25 -19 -50.5 -29.5t-54.5 -9.5t-53 19l32 32q55 -40 131 3q9 32 2 45t-27.5 14t-41 -4.5t-39.5 -10t-23 -1.5q-3 2 -0.5 4.5t8.5 6.5t8 6q27 31 59 94q-12 -1 -25 0q-51 2 -87.5 27.5t-54 64.5t-23 87.5
t2.5 96.5t27 92t46 73l32 32q52 41 84 50q43 12 85.5 -4t68 -53.5t21.5 -81.5z" />
    <glyph glyph-name="egrave" unicode="&#xe8;" horiz-adv-x="471" 
d="M413 297q11 51 -13.5 91.5t-67.5 59t-95.5 17.5t-92.5 -26q-55 -71 -63 -162q3 0 92 -3.5t145.5 1t94.5 22.5zM399 117l32 32q-2 -5 -4 -11.5t-2 -7.5t-2.5 -4t-3.5 -3.5t-6 -5.5t-10 -11l-32 -32l-21 -16q-17 -13 -25 -18l-22 -14q-14 -9 -26.5 -14t-25.5 -7
q-49 -10 -102 23q-57 35 -82 92q-25 58 -19 125q5 53 27.5 102t59.5 86l32 32q27 20 62.5 28t69.5 4t66 -17.5t52.5 -37.5t28.5 -55.5t-5 -71.5l-32 -32q-13 -12 -31 -20.5t-44.5 -13t-46.5 -7t-56 -2.5h-51q-15 0 -55 2t-45 2q2 -57 27 -105t74 -79q54 -33 102 -23
q19 4 41.5 16t31.5 19l36 26q1 1 3 7zM240 542l-63 119l32 32q31 -53 63 -119z" />
    <glyph glyph-name="eacute" unicode="&#xe9;" horiz-adv-x="474" 
d="M410 270q9 25 8 53.5t-16 54.5t-35.5 49.5t-51 39t-62.5 21.5t-69 -3t-71 -33q-52 -71 -41 -178q50 -7 107.5 -10.5t123 -2.5t107.5 9zM401 117l32 32q-14 -48 -30 -72l-32 -32q-85 -73 -156 -55.5t-119 89t-57 162.5l-5 1l5 5q-10 122 59 194l32 32q91 76 194 37
q72 -28 108 -95q40 -73 0 -130q-4 -6 -10 -12l-32 -32q-99 -26 -313 -4q16 -79 59.5 -137.5t106 -76t135.5 32.5q10 20 23 61zM179 545q2 8 5.5 16.5t9.5 18.5l10 15q4 6 13.5 16.5t12.5 14.5t14 16l13 13l19 19q-11 -12 -14 -16l-12 -14q-9 -10 -13 -16l-11 -16
q-6 -9 -9.5 -17.5t-5.5 -17.5z" />
    <glyph glyph-name="ecircumflex" unicode="&#xea;" horiz-adv-x="470" 
d="M406 286q7 30 -7 77q-20 62 -69.5 88t-105.5 17t-105 -44q-45 -72 -37 -156l23 23l57 -8q42 -6 65 -8.5t58.5 -4.5t65 2t55.5 14zM225 670q-39 -71 -49 -100l-32 -32q6 19 14.5 37.5t23.5 44.5l20 36l3 3l12 12q-2 -1 -12 -12l12 12l17 17q2 2 5.5 6.5t7 7t6.5 2.5
q7 0 46 -32l83 -70q45 -37 59 -45l-32 -32q-16 9 -93 74t-91 71zM415 120l32 32q-14 -20 -33 -42l-32 -32q-100 -100 -173 -86q-6 1 -12.5 4t-11 6t-11.5 9l-10 9q-3 2 -10 10t-8 9q-50 51 -76 112t-21 128.5t47 126.5l32 32q36 32 81.5 48.5t89 15.5t79.5 -28
q37 -28 53 -79q10 -31 11 -50q0 -19 -11 -49l-32 -32q-23 -12 -51 -18t-49 -8t-57.5 0t-51.5 4t-57 8t-50 7q13 -102 95 -186l8 -9l10 -10q3 -2 10 -8.5t12 -9.5l10 -6q7 -3 13 -4q65 -11 149 63q10 12 25 33z" />
    <glyph glyph-name="edieresis" unicode="&#xeb;" horiz-adv-x="492" 
d="M436 273q-1 60 -21 99q-28 52 -81.5 80t-113.5 24t-106 -39q-57 -71 -59 -159l7 7q52 -2 147 -4.5t135 -4.5q11 0 30 -1.5t34 -2t28 0.5zM405 133l32 32q-11 -54 -43 -92l-32 -32q-49 -27 -96 -33.5t-85 4t-69.5 35t-52 58t-30 74t-6.5 82.5t22 84.5t53 78.5l32 32
q45 43 108.5 51t121.5 -19q58 -28 87 -84q10 -19 15 -42q6 -24 6.5 -40.5t0.5 -45.5l-32 -32q-20 -4 -38 -4t-49 1.5t-38 2.5q-42 1 -127.5 3.5t-129.5 4.5q6 -76 50 -133.5t114.5 -75.5t160.5 23q16 26 25 67zM186 670q7 -6 7 -16t-6.5 -16.5t-16.5 -6.5t-16.5 6.5
t-6.5 16.5t6.5 16.5t16.5 6.5t16 -7zM325 665q7 -6 7 -16t-6.5 -16.5t-16.5 -6.5t-16.5 6.5t-6.5 16.5t6.5 16.5t16.5 6.5t16 -7z" />
    <glyph glyph-name="igrave" unicode="&#xec;" horiz-adv-x="179" 
d="M96 494l32 32q0 -28 6 -79.5t7 -73.5q2 -34 1.5 -151.5t5.5 -151.5l-32 -32q-6 57 -6 151t-1 152q-1 22 -7 73.5t-6 79.5zM124 563q-9 22 -22 41t-34.5 44t-29.5 36l32 32l30 -36q21 -25 34 -44t22 -41z" />
    <glyph glyph-name="iacute" unicode="&#xed;" horiz-adv-x="174" 
d="M85 14q-3 69 -4.5 219.5t-4.5 230.5l32 32q4 -79 5.5 -229.5t3.5 -220.5zM26 534q27 65 93 146l32 32q-65 -80 -93 -146z" />
    <glyph glyph-name="icircumflex" unicode="&#xee;" horiz-adv-x="264" 
d="M79 677l22 22q3 2 6.5 6.5t7 7t7.5 2.5q6 1 53.5 -49t65.5 -71l-32 -32l-63 67q-46 49 -55 52q-36 -58 -47 -86l-32 -32q5 13 12 27.5t13 24.5l17 26l15 25l9 9zM88 16q0 22 2 116t0 117q-1 32 -9 106.5t-8 114.5l32 32q0 -40 8 -114.5t9 -106.5q2 -22 0 -116t-2 -117z
" />
    <glyph glyph-name="idieresis" unicode="&#xef;" horiz-adv-x="244" 
d="M93 0q-7 67 3.5 232t-5.5 232l32 32q16 -66 6 -231.5t-4 -232.5zM50 665q7 -6 7 -16t-6.5 -16.5t-16.5 -6.5t-16.5 6.5t-6.5 16.5t6.5 16.5t16.5 6.5t16 -7zM214 671q7 -6 7 -16t-6.5 -16.5t-16.5 -6.5t-16.5 6.5t-6.5 16.5t6.5 16.5t16.5 6.5t16 -7z" />
    <glyph glyph-name="eth" unicode="&#xf0;" horiz-adv-x="496" 
d="M132 422q-54 -68 -63 -135q-8 -65 13 -123t68 -102q4 -3 11.5 -10.5t11 -10.5t10 -7.5t13.5 -6.5t15 -4q6 -1 40.5 1t39.5 3q65 10 111 43q71 111 15 275l-4 -4q-49 96 -123.5 119.5t-157.5 -38.5zM118 716l32 32q39 -20 80 -55q45 36 76 55l-32 -32q-19 -12 -39 -27
q64 -54 117.5 -128.5t88 -156t33 -166t-47.5 -147.5l-32 -32q-51 -51 -135 -64q-6 -1 -40.5 -3t-39.5 -1q-9 1 -15.5 3.5t-13.5 7.5l-10 6l-11 10.5t-11 11.5q-48 43 -69 101.5t-12 123.5q9 74 78 153l32 32q53 48 107 57.5t99 -17.5q-66 106 -156 181q-81 -63 -109 -81
l-25 -25l22 23l32 32q31 20 76 55q-39 31 -75 51z" />
    <glyph glyph-name="ntilde" unicode="&#xf1;" horiz-adv-x="462" 
d="M41 486l32 32q-1 -32 0 -48t4 -48t4 -49q2 -32 3 -80q22 66 78 126l32 32q18 15 31 23.5t32 17t37.5 6.5t35.5 -14q23 -15 41 -57.5t29.5 -106t18.5 -112t13 -114.5t7 -76l-32 -32q-1 9 -7.5 75t-13 115t-18 112t-29.5 106t-41 58q-16 10 -32.5 12.5t-33 -3t-29.5 -13
t-28 -19.5q-23 -27 -38 -57t-23 -52.5t-11.5 -60t-3.5 -56.5t0.5 -66t0.5 -67l-32 -32q-8 45 -11.5 94.5t-4.5 113t-3 95.5q-1 16 -4.5 48.5t-4.5 48t1 48.5zM394 653l32 32l-20 -29l-32 -32q-26 -25 -48 -36t-38 -9.5t-30.5 8t-26 17t-25 18.5t-26.5 12t-31 -4
q-1 -2 -2 -28l-32 -32v12v8q0 1 1 4.5t1.5 4t3 6t5.5 11.5l32 32q22 17 41.5 19t32.5 -8l30 -21q17 -12 32 -21t38 -5.5t50 23.5z" />
    <glyph glyph-name="ograve" unicode="&#xf2;" 
d="M339 68q34 51 46 116.5t-5 130.5t-64 104q-27 22 -59 29t-75 8q-29 -8 -52 -25q-54 -73 -69 -122q-8 -28 -8.5 -63.5t8.5 -72.5t24.5 -69t42 -54.5t59.5 -28.5q39 -6 74 7t78 40zM321 45q-34 -22 -53 -32.5t-51.5 -19.5t-61.5 -4q-33 5 -59.5 27.5t-42.5 54.5t-24.5 69
t-8.5 73t9 64q7 24 22 51t25.5 42.5t33.5 45.5l32 32q5 4 9 8h-3l32 32h18h17q14 4 32 7l-7 -7q69 -4 108 -37q51 -42 67 -113.5t-2 -142t-60 -118.5zM230 575q-18 22 -38 68t-30 63l32 32q10 -16 30.5 -62t37.5 -69z" />
    <glyph glyph-name="oacute" unicode="&#xf3;" horiz-adv-x="466" 
d="M364 51q29 49 41.5 119t-0.5 139.5t-51 107.5q-10 9 -19.5 15.5t-23 11t-21 7.5t-25 4.5t-22.5 2t-26.5 1t-23.5 0.5l7 7q-27 -10 -67 -41q-70 -86 -82 -163q-9 -58 11.5 -114t67 -93t106.5 -37q43 0 71.5 7t56.5 26zM354 36q-36 -30 -68 -40t-82 -10q-60 0 -106.5 36.5
t-67 92.5t-11.5 115q13 86 100 183l32 32l34 27q10 7 29 18t37 14t40 0l-14 -14q72 -5 109 -41q41 -39 53 -114t-3.5 -148.5t-49.5 -118.5zM237 661q-24 -26 -31 -55l-32 -32q3 14 10.5 27t12.5 19t21 22zM237 661l32 32l18 17l-32 -32z" />
    <glyph glyph-name="ocircumflex" unicode="&#xf4;" 
d="M351 88q-33 -28 -75.5 -42t-84.5 -12.5t-78.5 26t-53.5 70.5q-23 63 -5 154.5t59 142.5l32 32q35 29 71 38l7 7q76 0 113 -23q52 -32 73 -101.5t12 -139.5t-38 -120zM237 675q-42 -66 -64 -110l-32 -32q22 45 89 148l32 32q25 -19 56.5 -65.5t43.5 -60.5l-32 -32
q-14 15 -42.5 58t-50.5 62zM254 464q-68 13 -121 -22q-35 -56 -48.5 -138.5t6.5 -141.5q21 -54 68.5 -78t100 -17.5t98.5 35.5q25 52 31.5 119t-15 132t-70.5 96q-20 12 -47 18z" />
    <glyph glyph-name="otilde" unicode="&#xf5;" horiz-adv-x="457" 
d="M330 19q55 76 68 168t-21 180q-28 68 -76 82q-11 3 -69 3l16 16q-63 0 -130 -58q-19 -37 -31 -85.5t-13.5 -102t9.5 -100t43 -80.5t82 -44q72 -13 122 21zM316 0q-32 -27 -65.5 -34.5t-74.5 0.5q-51 9 -83.5 44.5t-43 83t-8.5 101.5t15 102.5t32 85.5l32 32
q53 50 96.5 71.5t100.5 9.5l-12 -12q21 -1 28 -3q48 -13 76 -82q37 -93 20 -191t-81 -176zM351 616q-25 -14 -44 -12.5t-42.5 8.5t-43.5 15.5t-47 7t-54 -16.5q0 -1 -1 -3.5t-2 -8t-3 -11.5l-32 -32q1 6 2.5 12t1.5 7t1.5 4t2.5 3.5t4.5 6t7.5 10.5l32 32q28 21 55.5 27
t48.5 -0.5t44 -14.5t42 -13t43 3l7 18l32 32l-4 -11q-3 -6 -3 -7t-2 -4t-2.5 -3.5t-4 -6t-7.5 -10.5z" />
    <glyph glyph-name="odieresis" unicode="&#xf6;" horiz-adv-x="467" 
d="M362 95q34 58 44.5 118t-3 112t-59.5 88.5t-120 45.5l12 12q-61 4 -126 -52q-19 -43 -33 -106t-11.5 -130.5t32.5 -97.5q37 -36 130 -34q75 2 134 44zM354 83q-70 -63 -158 -64q-94 -2 -130 34q-31 30 -33 99.5t12.5 133t34.5 105.5l32 32q50 49 91 69t95 7l-12 -12
q66 -14 105.5 -53.5t49 -92t-4.5 -111.5t-50 -115zM181 631q7 -6 7 -16t-6.5 -16.5t-16.5 -6.5t-16.5 6.5t-6.5 16.5t6.5 16.5t16.5 6.5t16 -7zM356 654q7 -6 7 -16t-6.5 -16.5t-16.5 -6.5t-16.5 6.5t-6.5 16.5t6.5 16.5t16.5 6.5t16 -7z" />
    <glyph glyph-name="divide" unicode="&#xf7;" horiz-adv-x="593" 
d="M-12 233l32 32q40 2 168.5 10.5t214 7t167.5 -17.5l-32 -32q-82 15 -167.5 16.5t-214.5 -7t-168 -9.5zM287 459q7 -6 7 -16t-6.5 -16.5t-16.5 -6.5t-16.5 6.5t-6.5 16.5t6.5 16.5t16.5 6.5t16 -7zM295 56q7 -6 7 -16t-6.5 -16.5t-16.5 -6.5t-16.5 6.5t-6.5 16.5t6.5 16.5
t16.5 6.5t16 -7z" />
    <glyph glyph-name="oslash" unicode="&#xf8;" horiz-adv-x="542" 
d="M72 35l11 11q-10 -9 -11 -11zM95 56l-10 -9q-18 -27 -27 -50q17 20 44 48q-4 6 -7 11zM404 376l-57 -67l-27 -27l-12 -14l-32 -32l-13 -12l-72 -75l-32 -32l-31 -29q3 -5 7 -10l6 6l1 1l107 117l32 32l11 10l10 11l32 32l13 12l63 70zM93 59l-6 -9l7 7zM146 429
q-36 -49 -50.5 -110t-7 -117.5t33.5 -103.5l38 38q-21 -21 -37 -40l4 -7l50 47l75 78l32 32l2 2l7 8l27 27l81 95l-5 4l-91 -105l-32 -32l-33 -32l32 32l-49 -47q-40 -38 -63 -62l80 77l32 32l6 6l116 134q-40 33 -84.5 47.5t-85.5 3.5l28 28q-51 2 -106 -35zM438 63
q63 84 46 179q-12 66 -72 126l-51 -56l-32 -32l-10 -10l-10 -10l-32 -32l-10 -9l-103 -113l-29 -29q31 -44 74.5 -64.5t103.5 -9.5t125 60zM423 45q-52 -43 -101 -62.5t-89.5 -15.5t-73 23.5t-56.5 53.5q-22 -24 -37 -48l-12 -12q-2 -7 -3 -13l-32 -32q2 16 11 36l-6 -6
q2 6 4.5 12t3.5 8t3 5.5t2 4t2.5 3.5t2.5 4l5 4l7 7q15 22 37 47q-29 50 -36 112t12.5 127.5t64.5 115.5l32 32q99 75 191 25l-11 -11q41 -14 80 -46l50 58l32 32l-80 -92l5 -4l40 43l32 32l-69 -77l7 -7l46 54l32 32l-76 -88q61 -60 73 -128q19 -105 -61 -197z" />
    <glyph glyph-name="ugrave" unicode="&#xf9;" horiz-adv-x="458" 
d="M57 461l32 32q-2 -32 3 -90t5 -71q1 -11 1 -37q1 -39 2 -60t4 -61.5t9.5 -62.5t16 -51.5t26 -41t38 -18.5t52.5 4t68 36q32 40 48.5 88.5t19.5 85t6 99.5t8 100l32 32q12 -122 3 -196q-3 -28 -17.5 -105t-16.5 -120l-32 -32q1 43 21 145q-22 -48 -61 -89l-32 -32
q-32 -24 -59.5 -36.5t-48 -13t-37.5 3.5t-28 21l-21 31q-9 15 -15 43t-9.5 47t-5 52t-2.5 50t-1 48q-1 26 -1 38l-5 71q-5 58 -3 90zM254 516q-8 13 -31.5 71.5t-46.5 82.5l32 32q24 -23 47.5 -82t30.5 -72z" />
    <glyph glyph-name="uacute" unicode="&#xfa;" horiz-adv-x="459" 
d="M266 658l-2 -2l-9 -10l-32 -32l-31 -30l-11 -16l-32 -32l13 19l32 32l35 34l15 17l32 32l11 10l27 27l-16 -17zM404 -16q-7 20 -9.5 45.5t-2 40t2.5 49t3 42.5q-23 -78 -61 -127l-32 -32q-60 -42 -132 -16q-39 13 -65.5 54t-37.5 92.5t-15 110.5t-0.5 108t10.5 87l32 32
q-7 -37 -10 -86t0.5 -108.5t15 -110.5t38 -92t64.5 -55q62 -22 115 6q26 41 43 96t24 118t9.5 111.5t2.5 108.5l32 32q8 -99 -1 -294q0 -10 -2.5 -43t-2.5 -49t2.5 -42t8.5 -46z" />
    <glyph glyph-name="ucircumflex" unicode="&#xfb;" horiz-adv-x="442" 
d="M230 663q-5 -7 -20 -25l-22 -26l-16.5 -24.5t-16.5 -28.5l-32 -32q14 28 51.5 74.5t49.5 65.5l32 32q20 -9 38.5 -30.5t39.5 -56t28 -44.5l-32 -32q-8 11 -27.5 42t-36.5 52.5t-36 32.5zM74 458l32 32q-5 -134 -1 -238q1 -9 1 -47t2.5 -62.5t8.5 -46.5q11 -36 31 -53.5
t42.5 -17.5t50.5 12t50 27.5t45 34.5q17 21 26 46l13 13q-2 207 12 325l32 32q-6 -54 -9 -121t-3 -112.5t0.5 -126.5t0.5 -115l-32 -32q0 29 -1 132q-7 -9 -20 -24l-32 -32q-19 -17 -37 -31.5t-43 -30.5t-47.5 -22.5t-44.5 -6t-39.5 18.5t-26.5 52q-6 23 -9 46
q-2 24 -2.5 62t-0.5 48q-5 103 1 238z" />
    <glyph glyph-name="udieresis" unicode="&#xfc;" horiz-adv-x="459" 
d="M63 477l32 32q0 -12 -1 -49.5t-1.5 -69t1 -77t5.5 -81t13.5 -73.5t24 -63t37.5 -41t52 -15q48 2 89 31q32 41 50.5 91t24.5 106t6 104t-5 109l32 32q8 -50 11.5 -97.5t2 -103.5t-3.5 -88t-8 -103t-8 -97l-32 -32q1 21 7.5 97t8.5 116q-24 -71 -71 -123l-32 -32
q-50 -40 -104 -42q-30 -1 -53 14.5t-37 41t-23.5 63t-13.5 73.5t-6 81t-1 76.5t2 69t1 50.5zM350 621q7 -6 7 -16t-6.5 -16.5t-16.5 -6.5t-16.5 6.5t-6.5 16.5t6.5 16.5t16.5 6.5t16 -7zM209 624q7 -6 7 -16t-6.5 -16.5t-16.5 -6.5t-16.5 6.5t-6.5 16.5t6.5 16.5t16.5 6.5
t16 -7z" />
    <glyph glyph-name="yacute" unicode="&#xfd;" horiz-adv-x="454" 
d="M18 494l32 32q8 -25 29.5 -67.5t23.5 -48.5q85 -189 139 -359l-32 -32q-55 170 -139 359q-3 5 -24.5 48t-28.5 68zM399 472l32 32q-6 -14 -11 -29t-10.5 -35t-9.5 -30q-2 -8 -16 -52l-20 -59l-18 -57q-14 -42 -22 -60l-22 -58q-15 -38 -26 -59l-26 -53q-17 -33 -31.5 -55
t-33 -47t-37.5 -45l-32 -32q-26 -21 -49 -25.5t-55 3.5l32 32q29 -7 50 -4.5t43 17.5q19 23 36 48t34 56l29 55q12 23 27.5 63t23.5 59t23.5 65t20 58.5t20 62t17.5 55.5q3 10 8.5 30t10.5 35t12 29zM140 525q11 14 42 60t53 68l32 32q-21 -21 -52.5 -67.5t-42.5 -60.5z" />
    <glyph glyph-name="thorn" unicode="&#xfe;" horiz-adv-x="500" 
d="M398 59q35 53 43 97q3 26 4.5 63t-6 80.5t-18.5 82t-32 68t-48 38.5q-94 30 -218 -75q-8 -12 -11.5 -16.5t-8.5 -14.5t-6 -16.5t-0.5 -16t3.5 -20.5l-16 -16q3 -35 13 -100t12 -83q46 -71 129.5 -92t159.5 21zM65 666l32 32q-4 -23 -5 -52t-0.5 -52.5t-0.5 -52.5
q0 -25 -4 -83t-5 -89l16 22l32 32q15 14 28.5 25t31 24t33.5 22.5t35.5 17.5t37.5 12t38 3t39 -7q27 -8 48.5 -38t32.5 -68t18 -81.5t6 -80.5t-5 -64q-9 -48 -57 -117l-32 -32q-66 -45 -139.5 -40t-128.5 53q8 -132 -7 -250l-32 -32q17 138 3 297q-2 14 -4 31q-19 30 -28 66
l16 16q-11 71 -13 112q-3 43 2 124t6 93q1 29 0 52.5t0 52t6 52.5z" />
    <glyph glyph-name="ydieresis" unicode="&#xff;" horiz-adv-x="431" 
d="M376 488l32 32q-22 -46 -48 -136t-35 -114q-6 -17 -29 -73t-32 -88q-5 -17 -13 -48l5 -13l-11 -11q-15 -56 -32.5 -95.5t-50.5 -73.5l-32 -32q-70 -47 -142 -23l32 32q68 -22 131 16q17 24 31 55t20 52l17 60q-8 18 -24 50t-19 39q-13 27 -31 79t-24 68q-21 54 -97 205
l32 32q76 -151 97 -205q6 -16 24 -68t31 -79l29 -57q8 27 28 76l28 70q8 24 34 113.5t49 136.5zM309 652q7 -6 7 -16t-6.5 -16.5t-16.5 -6.5t-16.5 6.5t-6.5 16.5t6.5 16.5t16.5 6.5t16 -7zM172 649q7 -6 7 -16t-6.5 -16.5t-16.5 -6.5t-16.5 6.5t-6.5 16.5t6.5 16.5
t16.5 6.5t16 -7z" />
    <glyph glyph-name="quoteleft" unicode="&#x2018;" horiz-adv-x="190" 
d="M96 507q11 -21 36 -28q7 17 -1 25.5t-35 2.5zM112 444q-34 5 -47.5 30t-8.5 57t17.5 63t28.5 53l32 32l27 3l-32 -32l-13 -2q-18 -36 -25 -70.5t4 -66.5l27 27q21 6 31 3.5t13.5 -8t0 -16t-9 -20.5t-13.5 -21z" />
    <glyph glyph-name="quoteright" unicode="&#x2019;" horiz-adv-x="182" 
d="M87 608l-4 16q-2 9 -3 10.5t0 5.5t1.5 5t5.5 8t9 14l32 32q3 1 8.5 2.5t8 2t6.5 -1.5q19 -13 0.5 -90.5t-35.5 -110.5l-32 -32q17 32 35 110t0 91q-3 2 -7 1q0 -2 1 -5t3 -10.5t3 -15.5z" />
    <glyph glyph-name="quotedblleft" unicode="&#x201c;" horiz-adv-x="285" 
d="M102 458q-60 -52 -59 31q0 65 24 137q3 8 6 13l32 32l26 17l-32 -32q-25 -75 -24 -139q3 -51 30 -45q0 1 1 4q2 7 1 9t-7 7q-7 5 -12 10l32 32l10 -8q6 -5 7 -5t2 -3.5t0.5 -5t-1.5 -8.5l-4 -14zM224 505q1 -17 6 -25zM218 645l32 32q-6 -15 -17 -75.5t-9 -95.5l32 32
q2 -6 3.5 -13t2 -8t0.5 -5v-4q0 -1 -1 -8l-2 -13l-32 -32q-3 -2 -7 -6.5t-8 -6.5t-7 -1q-17 7 -13.5 53t12.5 92t14 59z" />
    <glyph glyph-name="quotedblright" unicode="&#x201d;" horiz-adv-x="309" 
d="M41 599q-2 6 -4 13t-2.5 8t-0.5 5t1 5t3 8t5 15l32 32q46 28 42.5 -25.5t-38.5 -128.5q-2 -5 -3.5 -7.5t-31.5 -42.5l-32 -32q29 39 31 42q21 37 36 100q17 72 -12 71q-1 -3 -1 -5.5t0.5 -4t2.5 -8.5l4 -13zM201 605q-7 24 -3.5 35t20.5 30l32 32q3 1 8 4t7.5 3.5
t7.5 -0.5q10 -4 12.5 -35t0 -61t-5.5 -42q-8 -34 -43 -81l-32 -32q34 46 43 81q3 11 5 41t-0.5 61.5t-11.5 35.5q-4 1 -9 -1q-6 -14 1 -39z" />
    <glyph glyph-name="Euro" unicode="&#x20ac;" horiz-adv-x="635" 
d="M63 264l32 32q34 -9 73 -15q-3 55 12 116q-85 3 -145 16l32 32q53 -11 122 -14q35 112 102 185l32 32l20 18q6 6 18.5 14t24.5 11q22 4 52.5 2.5t64 -13t60.5 -27.5t41 -40t5 -51l-32 -32q8 26 -5.5 50.5t-40.5 40t-60.5 27.5t-64.5 13.5t-52 -2.5q-21 -6 -42 -24
q-71 -86 -100 -205q28 -1 85.5 -1.5t102 -2.5t84.5 -8l-32 -32q-29 4 -63 6t-58.5 2.5t-65 1t-60.5 0.5q-11 -65 -1 -119q39 -3 81.5 -3t97 1t79.5 1l-32 -32q-17 0 -107.5 -2t-108.5 0q22 -64 73 -117.5t115 -73.5t128 19q41 62 50 121l32 32q-9 -65 -61 -138l-32 -32
q-68 -55 -137.5 -37.5t-125.5 75t-77 126.5q-5 13 -7 28q-61 5 -109 19z" />
    <glyph glyph-name="uni3000" unicode="&#x3000;" horiz-adv-x="1000" 
 />
    <glyph glyph-name="uniF8FF" unicode="&#xf8ff;" horiz-adv-x="751" 
d="M114 514q-37 -56 -41.5 -128.5t14.5 -137t54 -128.5q2 -4 11 -20l12 -22q4 -7 13 -21.5t15 -22.5l16 -18q9 -10 19 -16.5t21 -11.5q19 -9 44.5 -5t44 12t43.5 17.5t43 10.5q28 3 56.5 -4t46.5 -14.5t42 -4.5t48 21q78 89 80 124q0 11 -13 25t-32 28l-41 31
q-21 17 -35.5 39.5t-19.5 48t10 61t51 75.5l32 32q36 36 66 55l-32 -32q-21 -14 -42 -32q-32 -38 -44.5 -72t-7 -59t20.5 -46.5t36 -38.5l39 -31q19 -14 32 -27.5t12 -24.5q-2 -38 -97 -143l-32 -32q-28 -27 -54.5 -33t-45.5 1.5t-49.5 15.5t-58.5 5q-18 -2 -43.5 -11.5
t-44 -17.5t-44 -12t-43.5 6q-13 5 -25.5 15t-20 17.5t-19 25.5t-15 23t-15.5 27.5t-12 23.5q-27 49 -44.5 100t-24.5 106.5t7 109t49 96.5l32 32q48 37 88 53t85 2q4 -1 15 -5l17 -4q5 -2 14 -4t17 -2.5t16 -0.5q29 2 73.5 26t54.5 27q27 12 57.5 9.5t56.5 -13t42.5 -34
t16.5 -54.5l-32 -32q0 30 -17 53.5t-42.5 34t-55.5 12.5q-31 3 -58 -8q-10 -4 -54 -28q-45 -24 -74 -25q-8 -1 -16 0t-17 3t-14.5 3.5t-16.5 5t-15 4.5q-41 12 -77.5 0t-77.5 -41zM355 588q-3 22 2 41.5t19 39.5t24.5 31.5t31.5 32.5l28 28l4 4l13 9q6 4 7 4.5t4.5 3t4 2.5
t7 3t11.5 6l-32 -32q-23 -11 -44 -26q-54 -59 -48 -115zM360 589l32 32q8 0 19 -1t21 6q3 1 4 2q40 54 49 125l32 32q-10 -85 -70 -150l-32 -32l-13 -8q-7 -4 -7.5 -5t-5 -2t-5.5 -0.5t-8.5 0.5t-15.5 1z" />
  </font>
</defs>
</svg>
